<svg fill="none" height="17" viewBox="0 0 72 17" width="72" xmlns="http://www.w3.org/2000/svg"><path d="m5.16051.727272h-4.683237l5.041197 15.272728h5.66763l5.0412-15.272728h-4.6833l-3.13207 10.768428h-.11932zm25.36929 7.636368c0-5.10086-3.2812-7.845175-7.4275-7.845175-4.1762 0-7.4276 2.744315-7.4276 7.845175 0 5.07106 3.2514 7.84516 7.4276 7.84516 4.1463 0 7.4275-2.7443 7.4275-7.84516zm-4.2656 0c0 2.74436-1.1037 4.23576-3.1619 4.23576-2.0583 0-3.162-1.4914-3.162-4.23576 0-2.74432 1.1037-4.2358 3.162-4.2358 2.0582 0 3.1619 1.49148 3.1619 4.2358zm18.3985-7.636368h-4.1463v7.994318h-.1193l-5.429-7.994318h-3.5199v15.272728h4.1463v-8.02415h.0895l5.5185 8.02415h3.4602zm10.8796 5.041198h4.1911c-.3207-3.06499-3.1023-5.250005-6.7116-5.250005-4.1165 0-7.4574 2.833805-7.4574 7.875005 0 4.83243 3.0277 7.81533 7.4872 7.81533 3.9971 0 6.8608-2.446 6.8608-6.62215v-2.1179h-6.7713v2.95315h2.7741c-.0373 1.3274-.9769 2.1775-2.8338 2.1775-2.1477 0-3.2514-1.5809-3.2514-4.26559 0-2.64738 1.1932-4.20597 3.2812-4.20597 1.2976 0 2.1776.59659 2.4311 1.64063zm5.3034 10.23153h10.9773v-3.3409h-6.831v-2.625h6.294v-3.34092h-6.294v-2.625h6.8608v-3.340908h-11.0071z" fill="#110e38"/></svg>