
<svg xmlns="http://www.w3.org/2000/svg" width="393.3" height="269.7" viewBox="0 0 393.3 269.7"><g fill="#fff"><path d="M343.3 90.9c-3.6-21.4-19.4-38.5-39.9-44.5.3-2.1.6-4.2.6-6.3 0-22.1-17.9-40-40-40-11.2 0-21.2 4.6-28.5 12-2-5.3-7-9.1-13-9.1-7.7 0-14 6.3-14 14s5.3 11.1 16.4 16.4c1.5.7 3 1.5 4.4 2.3.9.5 1.7 1 2.6 1.5.6.4 1.3.8 1.9 1.2.4.2.7.5 1.1.7 3.4 2.3 6.5 4.8 9.5 7.5.2.1.3.3.5.4 1.2 1.1 2.4 2.3 3.5 3.6.3.3.6.7.9 1 1.3 1.4 2.5 2.9 3.6 4.4 9.4 12.4 15 27.9 15 44.6s-5.7 32.2-15 44.6c-1.1 1.5-2.4 2.9-3.6 4.4-.3.3-.6.7-.9 1-1.1 1.2-2.3 2.4-3.5 3.6-.2.1-.3.3-.5.4-3 2.7-6.1 5.3-9.5 7.5-.4.2-.7.5-1.1.7-.6.4-1.2.8-1.9 1.2-.8.5-1.7 1-2.6 1.5-1.5.8-2.9 1.6-4.4 2.3-11.2 5.2-16.4 8.6-16.4 16.4 0 7.7 6.3 14 14 14 6 0 11-3.8 13-9.1 7.3 7.4 17.4 12 28.5 12 22.1 0 40-17.9 40-40 0-2.2-.3-4.2-.6-6.3 20.5-6 36.2-23.2 39.9-44.5.5-3.1.8-6.2.8-9.4 0-3.8-.3-7-.8-10zm-174.5 76.5c-1.5-.7-3-1.5-4.4-2.3-.9-.5-1.7-1-2.6-1.5-.6-.4-1.3-.8-1.9-1.2-.4-.2-.7-.5-1.1-.7-3.4-2.2-6.5-4.8-9.5-7.5-.2-.1-.3-.3-.5-.4-1.2-1.2-2.4-2.3-3.5-3.6-.3-.3-.6-.7-.9-1-1.3-1.4-2.5-2.9-3.6-4.4-9.4-12.4-15-27.9-15-44.6s5.7-32.2 15-44.6c1.1-1.5 2.4-2.9 3.6-4.4.3-.3.6-.7.9-1 1.1-1.2 2.3-2.4 3.5-3.6.2-.1.3-.3.5-.4 3-2.7 6.1-5.3 9.5-7.5.4-.2.7-.5 1.1-.7.6-.4 1.2-.8 1.9-1.2.8-.5 1.7-1 2.6-1.5 1.5-.8 2.9-1.6 4.4-2.3 11.2-5.2 16.4-8.6 16.4-16.4 0-7.7-6.3-14-14-14-6 0-11 3.8-13 9.1-7.3-7.4-17.4-12-28.5-12-22.1 0-40 17.9-40 40 0 2.2.3 4.2.6 6.3-20.5 6-36.2 23.2-39.9 44.5-.5 3.1-.8 6.2-.8 9.4s.3 6.3.8 9.4c3.6 21.4 19.4 38.5 39.9 44.5-.3 2.1-.6 4.2-.6 6.3 0 22.1 17.9 40 40 40 11.2 0 21.2-4.6 28.5-12 2 5.3 7 9.1 13 9.1 7.7 0 14-6.3 14-14 0-7.2-5.2-10.6-16.4-15.8z"/><path d="M240.5 100.3c0-24.1-19.5-43.6-43.6-43.6s-43.6 19.5-43.6 43.6 19.5 43.6 43.6 43.6 43.6-19.5 43.6-43.6z"/></g><path d="M28.6 264.9c0 .6-.3 1-.7 1.3-3 2.3-6.8 3.5-10.6 3.5C7.9 269.7 0 262 0 252.5c0-9.6 7.9-17.5 17.3-17.5 3.8 0 7.7 1.2 10.6 3.7 1.2 1 .5 2.7-.9 2.7-.3 0-.7-.1-.9-.3-2.4-1.8-5.6-3.1-8.8-3.1C9.5 238 3 244.5 3 252.5c0 7.8 6.5 14.2 14.3 14.2 3.3 0 6.4-1 8.8-2.9.9-.7 2.5-.3 2.5 1.1zm9.2-39.5c0-.3-.1-.7-.5-.9-1.1-.6-1.2-1.2-1.2-1.6 0-1.6 1.6-1.6 1.6-1.6.9 0 3.1.9 3.1 4.1v39.9c0 .3.1.7.5.9 1.1.6 1.2 1.2 1.2 1.6 0 1.6-1.6 1.6-1.6 1.6-.9 0-3.1-.9-3.1-4.1v-39.9zm12.2 27c0-9.6 7.8-17.4 17.4-17.4s17.3 7.9 17.3 17.4c0 9.6-7.7 17.3-17.3 17.3S50 262 50 252.4zm3 0c0 7.9 6.5 14.3 14.4 14.3s14.3-6.4 14.3-14.3S75.3 238 67.4 238 53 244.5 53 252.4zm65.1 10.7c-1.8 3.9-6.8 6.3-10.8 6.3-9.7 0-14.7-5.1-14.7-14.8v-15.3c0-.3-.1-.7-.5-.9-1.1-.6-1.2-1.2-1.2-1.6 0-1.6 1.6-1.6 1.6-1.6.9 0 3.1.9 3.1 4.1v15.3c0 8 3.8 11.9 11.7 11.9 6.1 0 10.8-4.5 10.8-10.5v-16.7c0-3.2 2.2-4.1 3.1-4.1 0 0 1.6 0 1.6 1.6 0 .3-.1 1-1.2 1.6-.3.2-.5.6-.5.9v26c0 .3.1.7.5.9 1.1.6 1.2 1.2 1.2 1.6 0 1.6-1.6 1.6-1.6 1.6-.9 0-3.1-.9-3.1-4.1v-2.2zm39.7-37.7c0-3.2 2.2-4.1 3.1-4.1 0 0 1.6 0 1.6 1.6 0 .3-.1 1-1.2 1.6-.3.2-.5.6-.5.9v39.9c0 .3.1.7.5.9 1.1.6 1.2 1.2 1.2 1.6 0 1.6-1.6 1.6-1.6 1.6-.9 0-3.1-.9-3.1-4.1v-3.7c-2.7 6-8.2 7.8-12.7 7.8-9.2 0-15.5-8.1-15.5-17.4 0-8.9 6.6-16.7 15.5-16.7 5 0 9.3 1.5 12.7 7v-16.9zm0 25.9c0-7-5.4-13.1-12.6-13.1-7.7 0-12.6 6.4-12.6 13.6 0 7.1 4.8 14.4 12.6 14.4 8 0 12.6-7.5 12.6-14.5v-.4zm41-10.2c0 1.9-1.5 3.3-3.3 3.3-.8 0-1.4-.2-2-.6-1.9-1.5-4.3-2.5-6.5-2.5-6 .1-11 5.1-11 11 0 5.8 4.9 10.9 10.9 10.9 2.2 0 4.6-.9 6.6-2.4.6-.4 1.2-.6 2-.6 1.8 0 3.3 1.5 3.3 3.3 0 1-.6 1.8-1.4 2.5-2.9 2.4-6.7 3.6-10.4 3.6-9.7 0-17.4-7.7-17.4-17.3 0-9.6 7.8-17.4 17.4-17.4 3.9 0 7.6 1.2 10.5 3.6.8.7 1.3 1.6 1.3 2.6zm26.7 24.2c-.7 1-3.1 4.4-8.7 4.4-6.6 0-12.9-4.4-12.9-11.6 0-8 6.4-11.2 13.2-11.2 2.8 0 5.6.7 8.1 1.9 0-6.7-2.9-7.7-6.7-7.7-4.5 0-6.6.9-6.6.9-2 .7-4.1-.6-4.1-2.7 0-1.6 1-2.8 2.4-3.2 2.5-.7 5.1-1.2 8.1-1.2 9.1 0 13.6 4.3 13.6 11.7v15.7c0 .7.3 1 .6 1.2 0 0 1.1.5 1.1 2.5s-1.4 3.3-3.4 3.3c-2.6.1-4.6-1.4-4.7-4zm-6.6-13.1c-4 0-8.4 1.2-8.4 6 0 3.5 3.3 5.2 6.4 5.2 3.9 0 8.3-2.4 8.5-6.6v-2.6c-2.3-1.6-5.1-2-6.5-2zm46.3-1.8c0-5.6-3.5-8.9-8.9-8.9-5 0-8.9 4.3-8.9 8.6v14.3c0 3-2 5-4.9 5-1.8 0-3.4-1.3-3.4-3.3 0-2 1.2-2.6 1.2-2.6.3-.2.6-.4.6-1.1v-20.1c0-.7-.3-.9-.6-1.1 0 0-1.2-.6-1.2-2.6s1.6-3.3 3.4-3.3c2.7 0 4.6 1.8 4.9 4.4 2.1-2.6 6.2-4.7 9.4-4.7 10.6 0 15 5.1 15 15.9v11.5c0 .7.3.9.6 1.1 0 0 1.2.6 1.2 2.6s-1.6 3.3-3.4 3.3c-2.9 0-4.9-2-4.9-5v-14zm40.6 0c0-5.6-3.5-8.9-8.9-8.9-5 0-8.9 4.3-8.9 8.6v14.3c0 3-2 5-4.9 5-1.8 0-3.4-1.3-3.4-3.3 0-2 1.2-2.6 1.2-2.6.3-.2.6-.4.6-1.1v-20.1c0-.7-.3-.9-.6-1.1 0 0-1.2-.6-1.2-2.6s1.6-3.3 3.4-3.3c2.7 0 4.6 1.8 4.9 4.4 2.1-2.6 6.2-4.7 9.4-4.7 10.6 0 15 5.1 15 15.9v11.5c0 .7.3.9.6 1.1 0 0 1.2.6 1.2 2.6s-1.6 3.3-3.4 3.3c-2.9 0-4.9-2-4.9-5v-14zm13.1 1.9c0-9.6 7.9-17.4 17.4-17.4 9.6 0 17.4 7.8 17.4 17.4 0 9.5-7.8 17.4-17.4 17.4-9.6 0-17.4-7.9-17.4-17.4zm6.5 0c0 6 4.9 10.8 10.8 10.8 6 0 10.8-4.9 10.8-10.8 0-6-4.9-10.8-10.8-10.8s-10.8 4.8-10.8 10.8zm59.5-1.9c0-5.6-3.5-8.9-8.9-8.9-5 0-8.9 4.3-8.9 8.6v14.3c0 3-2 5-4.9 5-1.8 0-3.4-1.3-3.4-3.3 0-2 1.2-2.6 1.2-2.6.3-.2.6-.4.6-1.1v-20.1c0-.7-.3-.9-.6-1.1 0 0-1.2-.6-1.2-2.6s1.6-3.3 3.4-3.3c2.7 0 4.6 1.8 4.9 4.4 2.1-2.6 6.2-4.7 9.4-4.7 10.6 0 15 5.1 15 15.9v11.5c0 .7.3.9.6 1.1 0 0 1.2.6 1.2 2.6s-1.6 3.3-3.4 3.3c-2.9 0-4.9-2-4.9-5v-14z" fill="#fff"/></svg>
