<?xml version="1.0" encoding="utf-8"?>
<!-- Generator: Adobe Illustrator 22.0.1, SVG Export Plug-In . SVG Version: 6.00 Build 0)  -->
<svg version="1.1" id="forestry_logo" xmlns="http://www.w3.org/2000/svg" xmlns:xlink="http://www.w3.org/1999/xlink" x="0px"
	 y="0px" viewBox="0 0 484.1 101.9" style="enable-background:new 0 0 484.1 101.9;" xml:space="preserve">
<style type="text/css">
	.st0{fill:none;stroke:#FFFFFF;stroke-width:8;stroke-miterlimit:10;}
	.st1{fill:#FFFFFF;}
</style>
<title>Forestry Logotype</title>
<polyline class="st0" points="2.8,39.5 28.3,14 53.8,39.5 "/>
<polyline class="st0" points="2.8,62.1 28.3,36.6 53.8,62.1 "/>
<polyline class="st0" points="101.9,36.6 76.4,62.1 50.9,36.6 "/>
<polyline class="st0" points="101.9,14 76.4,39.5 50.9,14 "/>
<line class="st0" x1="28.3" y1="101.9" x2="28.3" y2="0"/>
<line class="st0" x1="76.4" y1="101.9" x2="76.4" y2="0"/>
<g>
	<polygon class="st1" points="127.4,76.4 136.4,76.4 136.4,55.3 158.9,55.3 158.9,47.1 136.4,47.1 136.4,33.7 160.2,33.7
		160.2,25.5 127.4,25.5 	"/>
	<path class="st1" d="M211.6,31.4c-2.4-2.4-5.4-4.2-8.6-5.4c-3.5-1.3-7.2-1.9-10.9-1.8c-3.7,0-7.3,0.6-10.8,1.9
		c-3.2,1.2-6.1,3-8.5,5.4c-2.4,2.4-4.3,5.3-5.6,8.5c-1.4,3.5-2.1,7.3-2,11.1c-0.1,3.7,0.6,7.4,2,10.9c2.5,6.4,7.7,11.4,14.1,13.8
		c3.5,1.3,7.1,1.9,10.8,1.9c3.7,0,7.4-0.7,10.9-2c3.2-1.2,6.1-3.1,8.6-5.5c2.4-2.4,4.3-5.2,5.6-8.4c1.4-3.5,2.1-7.2,2-10.9
		c0.1-3.8-0.6-7.6-2-11.1C215.9,36.6,214,33.8,211.6,31.4z M208.5,58.2c-0.8,2.2-2,4.3-3.6,6c-1.5,1.7-3.4,3.1-5.5,4
		c-2.3,1-4.7,1.4-7.2,1.4c-2.5,0.1-4.9-0.4-7.2-1.4c-2.1-0.9-4-2.3-5.5-4c-1.6-1.7-2.8-3.8-3.6-6c-0.9-2.4-1.3-4.9-1.3-7.5
		c0-2.4,0.4-4.8,1.3-7.1c0.8-2.1,2-4.1,3.6-5.8c1.5-1.7,3.4-3,5.5-3.9c2.3-1,4.7-1.4,7.2-1.4c2.5,0,4.9,0.4,7.2,1.4
		c2.1,0.9,4,2.2,5.5,3.9c1.6,1.7,2.8,3.7,3.6,5.8c0.9,2.3,1.3,4.7,1.3,7.1C209.8,53.3,209.4,55.8,208.5,58.2z"/>
	<path class="st1" d="M259.8,49.4c2.1-2.6,3.2-5.9,3.1-9.3c0.1-2.5-0.5-4.9-1.6-7.1c-1-1.8-2.4-3.4-4.2-4.5
		c-1.9-1.1-3.9-1.9-6.1-2.3c-2.3-0.5-4.7-0.7-7.1-0.7h-17.7v50.9h9.1V54.9h6.6l11.8,21.6h10.9l-13.5-22.6
		C254.5,53.6,257.6,52,259.8,49.4z M246.2,46.9l-3.9,0.2h-7V33.3h7.8l3.6,0.2c1.1,0.1,2.3,0.4,3.3,0.9c1,0.4,1.8,1.1,2.4,2
		c0.7,1.1,1,2.3,0.9,3.6c0.1,1.4-0.3,2.7-1,3.9c-0.7,0.9-1.6,1.7-2.6,2.1C248.6,46.5,247.4,46.8,246.2,46.9L246.2,46.9z"/>
	<polygon class="st1" points="279.9,54.4 303.3,54.4 303.3,46.2 279.9,46.2 279.9,33.7 304.6,33.7 304.6,25.5 270.9,25.5
		270.9,76.4 305.9,76.4 305.9,68.2 279.9,68.2 	"/>
	<path class="st1" d="M340,49.8c-1.8-1.1-3.8-2-5.8-2.6l-5.8-1.9c-1.6-0.6-3.1-1.4-4.5-2.4c-1.2-1-1.9-2.5-1.8-4c0-1,0.2-2.1,0.7-3
		c0.5-0.8,1.1-1.5,1.9-2c0.8-0.5,1.7-0.9,2.7-1.1c1-0.3,2.1-0.4,3.1-0.4c1.7,0,3.5,0.3,5.1,1c1.5,0.6,2.9,1.7,3.8,3.1l6.6-7
		c-1.9-1.8-4.3-3.2-6.8-4c-2.5-0.8-5.2-1.2-7.8-1.2c-2.3,0-4.7,0.3-6.9,0.9c-2.2,0.6-4.2,1.5-6,2.8c-1.7,1.3-3.2,2.9-4.2,4.8
		c-1.1,2.1-1.7,4.4-1.6,6.8c-0.1,2.5,0.5,5,1.8,7.2c1.2,1.8,2.7,3.2,4.5,4.3c1.8,1.1,3.8,2,5.8,2.6l5.8,2c1.6,0.6,3.2,1.5,4.5,2.6
		c1.2,1.1,1.9,2.7,1.8,4.3c0,1.1-0.3,2.2-0.8,3.1c-0.5,0.9-1.2,1.6-2.1,2.2c-0.9,0.6-1.9,1-2.9,1.3c-3,0.8-6.2,0.4-8.9-1
		c-1.7-0.9-3.2-2.3-4.3-3.9l-6.9,6.5c2,2.4,4.6,4.2,7.5,5.3c2.9,1.1,6,1.6,9.1,1.6c2.4,0,4.8-0.3,7.1-1c2.1-0.6,4.1-1.6,5.9-3
		c1.7-1.4,3.1-3.1,4.1-5.1c1.1-2.3,1.6-4.7,1.5-7.2c0.1-2.6-0.5-5.1-1.8-7.3C343.3,52.4,341.8,50.9,340,49.8z"/>
	<polygon class="st1" points="350.1,33.7 365.7,33.7 365.7,76.4 374.7,76.4 374.7,33.7 390.3,33.7 390.3,25.5 350.1,25.5 	"/>
	<path class="st1" d="M431.9,49.4c2.1-2.6,3.2-5.9,3.1-9.3c0.1-2.5-0.5-4.9-1.6-7.1c-1-1.8-2.4-3.4-4.2-4.5
		c-1.9-1.1-3.9-1.9-6.1-2.3c-2.3-0.5-4.7-0.7-7.1-0.7h-17.7v50.9h9.1V54.9h6.6l11.8,21.6h10.9l-13.5-22.6
		C426.6,53.6,429.7,52,431.9,49.4z M418.3,46.9l-3.9,0.2h-7V33.3h7.8l3.6,0.2c1.1,0.1,2.3,0.4,3.3,0.9c1,0.4,1.8,1.1,2.4,2
		c0.7,1.1,1,2.3,0.9,3.6c0.1,1.4-0.3,2.7-1,3.9c-0.7,0.9-1.6,1.7-2.6,2.1C420.7,46.5,419.5,46.8,418.3,46.9z"/>
	<polygon class="st1" points="473.3,25.5 460.6,45.8 448.1,25.5 436.8,25.5 455.9,54.6 455.9,76.4 464.9,76.4 464.9,54.6
		484.1,25.5 	"/>
</g>
</svg>
