<?xml version="1.0" encoding="utf-8"?>
<!-- Generator: Adobe Illustrator 22.0.1, SVG Export Plug-In . SVG Version: 6.00 Build 0)  -->
<svg version="1.1" xmlns="http://www.w3.org/2000/svg" xmlns:xlink="http://www.w3.org/1999/xlink" x="0px" y="0px"
	 viewBox="0 0 838 349" style="enable-background:new 0 0 838 349;" xml:space="preserve">
<style type="text/css">
	.st0{opacity:0.3;}
	.st1{fill:url(#tube_3_);}
	.st2{fill:url(#liquid_2_);}
	.st3{fill:#333333;}
	.st4{opacity:0.3;fill:#FFFFFF;}
	.st5{opacity:0.5;fill:#FFFFFF;}
	.st6{fill:url(#SVGID_1_);}
	.st7{filter:url(#Adobe_OpacityMaskFilter);}
	.st8{opacity:0.75;mask:url(#SVGID_2_);}
	.st9{fill:#FFFFFF;}
	.st10{display:none;}
	.st11{display:inline;}
	.st12{opacity:0.1;}
	.st13{fill:url(#tube_4_);}
	.st14{fill:url(#liquid_3_);}
	.st15{fill:url(#SVGID_3_);}
	.st16{filter:url(#Adobe_OpacityMaskFilter_1_);}
	.st17{opacity:0.75;mask:url(#SVGID_4_);}
	.st18{display:none;opacity:0.3;}
	.st19{display:inline;fill:#FFFFFF;}
</style>
<g id="logo-bg-dark">
	<g id="test-tube">
		<path id="shadow_2_" class="st0" d="M747.4,15.4c-0.2,0.6-0.2,1.3,0,1.9c0,0,2.1,13.7-0.3,19.8l-99.7,259.2l0,0
			c-7.1,19,2.4,40.3,21.4,47.6c19,7.3,40.3-2.1,47.8-21l0,0l99.7-259.2c1.9-5.1,13.1-14.9,13.1-14.9c0.6-0.4,1-0.9,1.3-1.5l0-0.1
			c0.1-0.1,0.1-0.2,0.2-0.3c2.6-6.7-14-19.3-37-28.1c-23-8.9-43.8-10.6-46.3-3.9c0,0.1-0.1,0.2-0.1,0.3L747.4,15.4z"/>
		
			<linearGradient id="tube_3_" gradientUnits="userSpaceOnUse" x1="669.5791" y1="270.6961" x2="732.7349" y2="333.8519" gradientTransform="matrix(0.9138 -0.4062 0.4062 0.9138 -35.0038 187.7565)">
			<stop  offset="0" style="stop-color:#919191"/>
			<stop  offset="1" style="stop-color:#FFFFFF"/>
		</linearGradient>
		<path id="tube_2_" class="st1" d="M744.5,13.2c-0.2,0.6-0.2,1.3,0,1.9c0,0,2.1,13.7-0.3,19.8l-99.7,259.2l0,0
			c-7.1,19,2.4,40.3,21.4,47.6c19,7.3,40.3-2.1,47.8-21l0,0l99.7-259.2c1.9-5.1,13.1-14.9,13.1-14.9c0.6-0.4,1-0.9,1.3-1.5l0-0.1
			c0.1-0.1,0.1-0.2,0.2-0.3c2.6-6.7-14-19.3-37-28.1c-23-8.9-43.8-10.6-46.3-3.9c0,0.1-0.1,0.2-0.1,0.3L744.5,13.2z"/>
		
			<linearGradient id="liquid_2_" gradientUnits="userSpaceOnUse" x1="645.8314" y1="318.8753" x2="684.066" y2="357.1099" gradientTransform="matrix(0.9138 -0.4062 0.4062 0.9138 -35.0038 187.7565)">
			<stop  offset="0" style="stop-color:#990000"/>
			<stop  offset="1" style="stop-color:#E80000"/>
		</linearGradient>
		<path id="liquid" class="st2" d="M775.8,130.4l-71.9,186.9l0,0c-5.3,13.4-20.7,20.4-34.4,15.1c-13.7-5.3-21.1-21-16.1-34.5l0,0
			l45.9-119.4c0,0,5.7-9.3,17-15.8c11.3-6.6,20.6-5.2,33.1-10.8C762,146.3,775.8,130.4,775.8,130.4z"/>
		<path id="top" class="st3" d="M812,39.4c-1.4,3.8-14.2,2.3-28.5-3.1c-14.3-5.5-24.7-13-23.3-16.8c1.4-3.8,14.2-2.3,28.5,3.1
			C803,28.1,813.4,35.6,812,39.4z"/>
		<path id="side-reflection" class="st4" d="M744.5,15.1c0,0,2,13.8-0.3,19.8l-99.7,259.2l0,0c-7.1,19,2.4,40.3,21.4,47.6
			c3.3,1.3,6.7,2,10,2.3c-12.8-9.6-18.3-26.9-12.4-42.6l0,0l97.7-254C761.3,47.4,748,34.9,744.5,15.1z"/>
		<g id="bubbles">
			<path class="st5" d="M715.1,181.1c0.6,1.5,0,3.2-1.5,3.8c-1.5,0.6-3.2,0-3.8-1.5c-0.6-1.5,0-3.2,1.5-3.8
				C712.7,179,714.4,179.7,715.1,181.1z"/>
			<path class="st5" d="M735.3,201.5c1,2.2,0,4.8-2.2,5.7c-2.2,1-4.8,0-5.7-2.2c-1-2.2,0-4.8,2.2-5.7
				C731.8,198.3,734.3,199.3,735.3,201.5z"/>
			<path class="st5" d="M709.9,224.8c1.8,4.1,0,8.9-4.1,10.8c-4.1,1.8-8.9,0-10.8-4.1c-1.8-4.1,0-8.9,4.1-10.8
				C703.2,218.8,708.1,220.7,709.9,224.8z"/>
			<path class="st5" d="M693.2,241.5c1,2.2,0,4.8-2.2,5.7c-2.2,1-4.8,0-5.7-2.2c-1-2.2,0-4.8,2.2-5.7
				C689.6,238.3,692.2,239.3,693.2,241.5z"/>
			<path class="st5" d="M709.2,274.4c0.6,1.5,0,3.2-1.5,3.8c-1.5,0.6-3.2,0-3.8-1.5c-0.6-1.5,0-3.2,1.5-3.8
				C706.8,272.3,708.6,272.9,709.2,274.4z"/>
		</g>
	</g>
	<g id="jekyll-text">
		<g class="st0">
			<g>
				<path d="M198.4,166.4c4.4,3.5,12.4,1.5,17.7-4.4c5.6-6.2,6.5-14.1,2.1-17.6c-4.4-3.5-12.4-1.5-17.7,4.7
					C194.9,155.2,194,162.8,198.4,166.4z M185.4,177.8c-1.2,0-3.2,2.1-1.5,2.9c2.4,0.9,3.5,2.9,3.5,5.9c-2.1,12.1-17.1,25.9-23,30.6
					c-1.5,1.5,0.6,4.7,2.1,3.5c3.2-2.6,10-7.9,15.6-15c-9.1,20.3-26.8,46.5-33.6,55.6c-26.5,36.8-66.8,70.6-94.5,70.6
					c-22.1,0-40.9-15-45-37.1c-0.3-2.4-3.5-2.9-2.9,0.3c5,30.3,28.3,42.1,56.5,42.1c30.9,0,67.2-22.4,87.1-45.3
					c32.3-37.1,53.3-79.7,47.7-103.8C195.1,179,189,177.5,185.4,177.8z M384,258.5c8.5-2.1,15.6-6.8,15.6-14.2c0-0.7-1.5-0.7-1.5,0
					c0,4.4-5,8-10.6,8.9c-13.2,2.1-39.4-13.5-51.8-29.4c13.2,5,40.3-2.3,53-11.4c11.8-8.5,16.5-17.9,17.4-25.6
					c1.5-12.6-12.4-20-31.5-12.6c-12.4,5-27.1,15.9-42.4,36.2c16.2-26.8,48-70.3,79.2-98.2c38-33.8,60-27.3,25.9,8.5
					c-14.1,14.7-40.6,33.8-58.9,42.1c-5.6,2.4-2.9,5.6,1.2,3.8c19.4-8.5,45.3-26.2,60.9-40.9c46.2-44.4,7.7-77.9-43.6-30.9
					c-34.7,32.1-57.4,65.6-77.1,109.1c-6.8,8.2-11.8,15-18,20.3c-0.7,0.6-1.3,1.3-1.8,1.9c-17,14.6-43.7,34.2-60.3,34.5
					c-11.8,0.3-16.8-8.5-14.7-20c3.2-17.9,21.8-39.1,37.7-46.5c20.6-9.4,32.7,8.8,5.6,23.5c-10.3,5.3-22.7,8.2-27.7,8.2
					c-5.9,0-5.3,2.4-0.3,2.6c8.2,0.3,21.5-3.2,30.3-7.4c27.7-13.2,29.4-37.9-0.6-38.8c-32.7-1.2-71.8,26.8-71.5,61.8
					c0.3,15.9,13,24.4,30.3,24.4c28.9-0.3,54.7-22.3,75.8-41.6c3-2.5,6-5.3,8.9-8.2c-7.4,18.8-11.2,36.2-9.4,49.1
					c1.2,9.4,6.5,13.8,10.6,17.3c0.9,0.6,2.6,0,1.5-1.8c-6.2-7.4-4.4-29.2,4.1-50.3C327.5,247,355.2,264.9,384,258.5z M349.3,197.1
					c33.8-30.3,47.1-3.2,25.6,13.2c-11.2,8.5-33.3,15-40.3,10.9l-1.5-0.9c-0.9-1.5-1.8-2.9-2.4-4.4
					C336.3,209.2,342.8,203,349.3,197.1z M537.1,162.8c13.5,1.5,7.9-15-5.9-10.9c-6.2,1.8-12.1,13.5-16.5,23.8
					c-13.5,20.3-36.2,47.9-52.1,62.3c-14.1,12.1-27.1,15.3-11.2-7.4c6.5-9.1,14.7-18.8,19.4-28.5c11.2-24.4-12.7-35.3-31.8-20.6
					c-11.2,8.5-26.2,26.2-38,35.9c-3.2,2.6-2.4,6.5,0.9,3.8c9.4-7.6,25.9-25,40-35.3c11.8-9.1,16.5-3.2,9.7,4.4
					c-9.4,10.9-25.9,29.7-30,41.8c-5.9,17.9,1.2,25.9,12.9,25.9c16.2,0,40.3-25.3,56.5-45.3c5.3-6.8,11.2-14.7,16.2-22.3
					c-14.1,27.3-28.8,55-47.1,80c-25.9,35.3-58.3,61.8-88.9,61.8c-22.1,0-41.2-15-45.3-37.1c-0.3-2.4-3.2-2.9-2.9,0.3
					c5,30.3,28.3,42.1,56.5,42.1c30.9,0,60.6-17.9,81.5-40c42.1-44.4,47.1-94.4,60-122.3C527.1,162.8,532.7,162.2,537.1,162.8z
					 M708.2,120c6.2-10.6,5.9-18.8-8.5-18.8c-10.9,0.3-30.6,7.9-39.7,15c-2.1,2.1-1.2,3.2,1.5,2.1c1.8-0.6,3.8-1.8,5.9-2.6
					c10.3-5.6,6.2,6.2,3.8,10.6c-12.4,21.5-34.1,51.8-45.6,66.8c-5.5,7.4-11.7,14.8-17.7,21c-11.1,10.5-32.9,29.1-49.4,35.3
					c-53.6,20,14.7-71.2,20.3-78.5c12.7-15.9,40.9-43.5,49.4-57.3c6.2-10.6,5.9-18.8-8.5-18.8c-10.9,0.3-30.6,7.9-39.7,15
					c-2.1,2.1-1.2,3.2,1.5,2.1c1.8-0.6,3.8-1.8,5.9-2.6c10.3-5.6,6.2,6.2,3.8,10.6c-12.4,21.5-34.1,51.8-45.6,66.8
					c-9.4,12.6-20.9,25.3-29.7,32.3c-3.5,2.9-1.5,5.6,2.1,3.2c3.2-2.1,7.9-6.8,13.2-12.4c-9.7,19.4-17.7,46.8,7.9,50
					c21.8,3,47.8-19.3,64.5-35.8c1.8-1.8,3.9-3.8,6-6c0.5-0.5,1-1,1.5-1.5c-9.7,19.4-17.6,46.7,8,49.9c28,3.8,62.7-33.8,76.2-47.6
					c2.6-2.6,1.8-7.1-2.6-2.6c-7.9,8.2-34.7,32.6-54.2,40c-53.6,20,14.7-71.2,20.3-78.5C671.4,161.4,699.7,133.8,708.2,120z"/>
			</g>
		</g>
		<g>
			<g>
				<g>
					<linearGradient id="SVGID_1_" gradientUnits="userSpaceOnUse" x1="356.2588" y1="334.6357" x2="356.2588" y2="69.1638">
						<stop  offset="0" style="stop-color:#919191"/>
						<stop  offset="1" style="stop-color:#FFFFFF"/>
					</linearGradient>
					<path class="st6" d="M195.6,163.5c4.4,3.5,12.4,1.5,17.7-4.4c5.6-6.2,6.5-14.1,2.1-17.6c-4.4-3.5-12.4-1.5-17.7,4.7
						C192,152.4,191.1,160,195.6,163.5z M182.6,175c-1.2,0-3.2,2.1-1.5,2.9c2.4,0.9,3.5,2.9,3.5,5.9c-2.1,12.1-17.1,25.9-23,30.6
						c-1.5,1.5,0.6,4.7,2.1,3.5c3.2-2.6,10-7.9,15.6-15c-9.1,20.3-26.8,46.5-33.6,55.6c-26.5,36.8-66.8,70.6-94.5,70.6
						c-22.1,0-40.9-15-45-37.1c-0.3-2.4-3.5-2.9-2.9,0.3c5,30.3,28.3,42,56.5,42c30.9,0,67.2-22.4,87.1-45.3
						c32.3-37.1,53.3-79.7,47.7-103.8C192.3,176.2,186.1,174.7,182.6,175z M381.2,255.6c8.5-2.1,15.6-6.8,15.6-14.2
						c0-0.7-1.5-0.7-1.5,0c0,4.4-5,8-10.6,8.9c-13.2,2.1-39.4-13.5-51.8-29.4c13.2,5,40.3-2.3,53-11.4c11.8-8.5,16.5-17.9,17.4-25.6
						c1.5-12.6-12.4-20-31.5-12.6c-12.4,5-27.1,15.9-42.4,36.2c16.2-26.8,48-70.3,79.2-98.2c38-33.8,60-27.3,25.9,8.5
						c-14.1,14.7-40.6,33.8-58.9,42.1c-5.6,2.4-2.9,5.6,1.2,3.8c19.4-8.5,45.3-26.2,60.9-40.9c46.2-44.4,7.7-77.9-43.6-30.9
						C359.4,124,336.7,157.5,317,201c-6.8,8.2-11.8,15-18,20.3c-0.7,0.6-1.3,1.3-1.8,1.9c-17,14.6-43.7,34.2-60.3,34.5
						c-11.8,0.3-16.8-8.5-14.7-20c3.2-17.9,21.8-39.1,37.7-46.5c20.6-9.4,32.7,8.8,5.6,23.5c-10.3,5.3-22.7,8.2-27.7,8.2
						c-5.9,0-5.3,2.4-0.3,2.6c8.2,0.3,21.5-3.2,30.3-7.4c27.7-13.2,29.4-37.9-0.6-38.8c-32.7-1.2-71.8,26.8-71.5,61.8
						c0.3,15.9,13,24.4,30.3,24.4c28.9-0.3,54.7-22.3,75.8-41.6c3-2.5,6-5.3,8.9-8.2c-7.4,18.8-11.2,36.2-9.4,49.1
						c1.2,9.4,6.5,13.8,10.6,17.3c0.9,0.6,2.6,0,1.5-1.8c-6.2-7.4-4.4-29.2,4.1-50.3C324.7,244.2,352.3,262.1,381.2,255.6z
						 M346.5,194.3c33.8-30.3,47.1-3.2,25.6,13.2c-11.2,8.5-33.3,15-40.3,10.9l-1.5-0.9c-0.9-1.5-1.8-2.9-2.4-4.4
						C333.5,206.3,340,200.2,346.5,194.3z M534.3,160c13.5,1.5,7.9-15-5.9-10.9c-6.2,1.8-12.1,13.5-16.5,23.8
						c-13.5,20.3-36.2,47.9-52.1,62.3c-14.1,12.1-27.1,15.3-11.2-7.4c6.5-9.1,14.7-18.8,19.4-28.5c11.2-24.4-12.7-35.3-31.8-20.6
						c-11.2,8.5-26.2,26.2-38,35.9c-3.2,2.6-2.4,6.5,0.9,3.8c9.4-7.6,25.9-25,40-35.3c11.8-9.1,16.5-3.2,9.7,4.4
						c-9.4,10.9-25.9,29.7-30,41.8c-5.9,17.9,1.2,25.9,12.9,25.9c16.2,0,40.3-25.3,56.5-45.3c5.3-6.8,11.2-14.7,16.2-22.3
						c-14.1,27.3-28.8,55-47.1,80c-25.9,35.3-58.3,61.8-88.9,61.8c-22.1,0-41.2-15-45.3-37.1c-0.3-2.4-3.2-2.9-2.9,0.3
						c5,30.3,28.3,42,56.5,42c30.9,0,60.6-17.9,81.5-40c42.1-44.4,47.1-94.4,60-122.3C524.3,160,529.9,159.4,534.3,160z
						 M705.4,117.1c6.2-10.6,5.9-18.8-8.5-18.8c-10.9,0.3-30.6,7.9-39.7,15c-2.1,2.1-1.2,3.2,1.5,2.1c1.8-0.6,3.8-1.8,5.9-2.6
						c10.3-5.6,6.2,6.2,3.8,10.6c-12.4,21.5-34.1,51.8-45.6,66.8c-5.5,7.4-11.7,14.8-17.7,21c-11.1,10.5-32.9,29.1-49.4,35.3
						c-53.6,20,14.7-71.2,20.3-78.5c12.7-15.9,40.9-43.5,49.4-57.3c6.2-10.6,5.9-18.8-8.5-18.8c-10.9,0.3-30.6,7.9-39.7,15
						c-2.1,2.1-1.2,3.2,1.5,2.1c1.8-0.6,3.8-1.8,5.9-2.6c10.3-5.6,6.2,6.2,3.8,10.6c-12.4,21.5-34.1,51.8-45.6,66.8
						c-9.4,12.6-20.9,25.3-29.7,32.3c-3.5,2.9-1.5,5.6,2.1,3.2c3.2-2.1,7.9-6.8,13.2-12.4c-9.7,19.4-17.7,46.8,7.9,50
						c21.8,3,47.8-19.3,64.5-35.8c1.8-1.8,3.9-3.8,6-6c0.5-0.5,1-1,1.5-1.5c-9.7,19.4-17.6,46.7,8,49.9c28,3.8,62.7-33.8,76.2-47.6
						c2.6-2.6,1.8-7.1-2.6-2.6c-7.9,8.2-34.7,32.6-54.2,40c-53.6,20,14.7-71.2,20.3-78.5C668.6,158.6,696.9,131,705.4,117.1z"/>
				</g>
			</g>
			<defs>
				<filter id="Adobe_OpacityMaskFilter" filterUnits="userSpaceOnUse" x="3.3" y="69.2" width="705.9" height="265.5">
					
						<feColorMatrix  type="matrix" values="-1 0 0 0 1  0 -1 0 0 1  0 0 -1 0 1  0 0 0 1 0" color-interpolation-filters="sRGB" result="source"/>
				</filter>
			</defs>
			<mask maskUnits="userSpaceOnUse" x="3.3" y="69.2" width="705.9" height="265.5" id="SVGID_2_">
				<g class="st7">
					
						<image style="overflow:visible;" width="711" height="270" xlink:href="C475C671197901F7.jpg"  transform="matrix(1 0 0 1 1 67)">
					</image>
				</g>
			</mask>
			<g class="st8">
				<g>
					<path class="st9" d="M195.6,163.5c4.4,3.5,12.4,1.5,17.7-4.4c5.6-6.2,6.5-14.1,2.1-17.6c-4.4-3.5-12.4-1.5-17.7,4.7
						C192,152.4,191.1,160,195.6,163.5z M182.6,175c-1.2,0-3.2,2.1-1.5,2.9c2.4,0.9,3.5,2.9,3.5,5.9c-2.1,12.1-17.1,25.9-23,30.6
						c-1.5,1.5,0.6,4.7,2.1,3.5c3.2-2.6,10-7.9,15.6-15c-9.1,20.3-26.8,46.5-33.6,55.6c-26.5,36.8-66.8,70.6-94.5,70.6
						c-22.1,0-40.9-15-45-37.1c-0.3-2.4-3.5-2.9-2.9,0.3c5,30.3,28.3,42,56.5,42c30.9,0,67.2-22.4,87.1-45.3
						c32.3-37.1,53.3-79.7,47.7-103.8C192.3,176.2,186.1,174.7,182.6,175z M381.2,255.6c8.5-2.1,15.6-6.8,15.6-14.2
						c0-0.7-1.5-0.7-1.5,0c0,4.4-5,8-10.6,8.9c-13.2,2.1-39.4-13.5-51.8-29.4c13.2,5,40.3-2.3,53-11.4c11.8-8.5,16.5-17.9,17.4-25.6
						c1.5-12.6-12.4-20-31.5-12.6c-12.4,5-27.1,15.9-42.4,36.2c16.2-26.8,48-70.3,79.2-98.2c38-33.8,60-27.3,25.9,8.5
						c-14.1,14.7-40.6,33.8-58.9,42.1c-5.6,2.4-2.9,5.6,1.2,3.8c19.4-8.5,45.3-26.2,60.9-40.9c46.2-44.4,7.7-77.9-43.6-30.9
						C359.4,124,336.7,157.5,317,201c-6.8,8.2-11.8,15-18,20.3c-0.7,0.6-1.3,1.3-1.8,1.9c-17,14.6-43.7,34.2-60.3,34.5
						c-11.8,0.3-16.8-8.5-14.7-20c3.2-17.9,21.8-39.1,37.7-46.5c20.6-9.4,32.7,8.8,5.6,23.5c-10.3,5.3-22.7,8.2-27.7,8.2
						c-5.9,0-5.3,2.4-0.3,2.6c8.2,0.3,21.5-3.2,30.3-7.4c27.7-13.2,29.4-37.9-0.6-38.8c-32.7-1.2-71.8,26.8-71.5,61.8
						c0.3,15.9,13,24.4,30.3,24.4c28.9-0.3,54.7-22.3,75.8-41.6c3-2.5,6-5.3,8.9-8.2c-7.4,18.8-11.2,36.2-9.4,49.1
						c1.2,9.4,6.5,13.8,10.6,17.3c0.9,0.6,2.6,0,1.5-1.8c-6.2-7.4-4.4-29.2,4.1-50.3C324.7,244.2,352.3,262.1,381.2,255.6z
						 M346.5,194.3c33.8-30.3,47.1-3.2,25.6,13.2c-11.2,8.5-33.3,15-40.3,10.9l-1.5-0.9c-0.9-1.5-1.8-2.9-2.4-4.4
						C333.5,206.3,340,200.2,346.5,194.3z M534.3,160c13.5,1.5,7.9-15-5.9-10.9c-6.2,1.8-12.1,13.5-16.5,23.8
						c-13.5,20.3-36.2,47.9-52.1,62.3c-14.1,12.1-27.1,15.3-11.2-7.4c6.5-9.1,14.7-18.8,19.4-28.5c11.2-24.4-12.7-35.3-31.8-20.6
						c-11.2,8.5-26.2,26.2-38,35.9c-3.2,2.6-2.4,6.5,0.9,3.8c9.4-7.6,25.9-25,40-35.3c11.8-9.1,16.5-3.2,9.7,4.4
						c-9.4,10.9-25.9,29.7-30,41.8c-5.9,17.9,1.2,25.9,12.9,25.9c16.2,0,40.3-25.3,56.5-45.3c5.3-6.8,11.2-14.7,16.2-22.3
						c-14.1,27.3-28.8,55-47.1,80c-25.9,35.3-58.3,61.8-88.9,61.8c-22.1,0-41.2-15-45.3-37.1c-0.3-2.4-3.2-2.9-2.9,0.3
						c5,30.3,28.3,42,56.5,42c30.9,0,60.6-17.9,81.5-40c42.1-44.4,47.1-94.4,60-122.3C524.3,160,529.9,159.4,534.3,160z
						 M705.4,117.1c6.2-10.6,5.9-18.8-8.5-18.8c-10.9,0.3-30.6,7.9-39.7,15c-2.1,2.1-1.2,3.2,1.5,2.1c1.8-0.6,3.8-1.8,5.9-2.6
						c10.3-5.6,6.2,6.2,3.8,10.6c-12.4,21.5-34.1,51.8-45.6,66.8c-5.5,7.4-11.7,14.8-17.7,21c-11.1,10.5-32.9,29.1-49.4,35.3
						c-53.6,20,14.7-71.2,20.3-78.5c12.7-15.9,40.9-43.5,49.4-57.3c6.2-10.6,5.9-18.8-8.5-18.8c-10.9,0.3-30.6,7.9-39.7,15
						c-2.1,2.1-1.2,3.2,1.5,2.1c1.8-0.6,3.8-1.8,5.9-2.6c10.3-5.6,6.2,6.2,3.8,10.6c-12.4,21.5-34.1,51.8-45.6,66.8
						c-9.4,12.6-20.9,25.3-29.7,32.3c-3.5,2.9-1.5,5.6,2.1,3.2c3.2-2.1,7.9-6.8,13.2-12.4c-9.7,19.4-17.7,46.8,7.9,50
						c21.8,3,47.8-19.3,64.5-35.8c1.8-1.8,3.9-3.8,6-6c0.5-0.5,1-1,1.5-1.5c-9.7,19.4-17.6,46.7,8,49.9c28,3.8,62.7-33.8,76.2-47.6
						c2.6-2.6,1.8-7.1-2.6-2.6c-7.9,8.2-34.7,32.6-54.2,40c-53.6,20,14.7-71.2,20.3-78.5C668.6,158.6,696.9,131,705.4,117.1z"/>
				</g>
			</g>
		</g>
		<g id="highlight">
			<g>
				<path class="st9" d="M606.8,216.9c-0.1,0.1-0.3,0.3-0.4,0.4c-4.2,9.1-7.6,19.4-7.3,28c0.3-9.4,4.5-20.6,9.2-29.9
					C607.8,215.9,607.3,216.4,606.8,216.9z"/>
				<path class="st9" d="M526.3,210.7c-4.2,9.1-7.6,19.4-7.3,28c0.3-9.5,4.6-20.7,9.2-30C527.6,209.4,527,210.1,526.3,210.7z"/>
				<path class="st9" d="M656.7,115.8c0.1-0.2,0.3-0.3,0.5-0.5c9.1-7.1,28.8-14.7,39.7-15c8.2,0,11.9,2.7,12.3,7
					c0.5-5.4-2.9-9-12.3-9c-10.9,0.3-30.6,7.9-39.7,15C655.7,114.7,655.7,115.7,656.7,115.8z"/>
				<path class="st9" d="M689.8,213c-7.9,8.2-34.7,32.6-54.2,40c-14.2,5.3-19.8,2.8-20.3-3.9c-0.5,8.1,4.8,11.7,20.3,5.9
					c19.4-7.4,46.2-31.8,54.2-40c2.1-2.1,3.5-2.2,3.9-1.4C694.5,211.4,693.2,209.6,689.8,213z"/>
				<path class="st9" d="M513,217.8c8.8-7.1,20.3-19.7,29.7-32.3c11.5-15,33.3-45.3,45.6-66.8c1.3-2.5,3.2-7.3,2.8-10.1
					c-0.3,2.7-1.7,6.1-2.8,8.1c-12.4,21.5-34.1,51.8-45.6,66.8c-9.4,12.6-20.9,25.3-29.7,32.3c-1.9,1.6-2.2,3-1.5,3.7
					C511.7,219,512.2,218.4,513,217.8z"/>
				<path class="st9" d="M576.6,109.3c0.1-0.2,0.3-0.3,0.5-0.5c9.1-7.1,28.8-14.7,39.7-15c8.2,0,11.9,2.7,12.3,7
					c0.5-5.4-2.9-9-12.3-9c-10.9,0.3-30.6,7.9-39.7,15C575.7,108.2,575.7,109.1,576.6,109.3z"/>
				<path class="st9" d="M668.3,125.3c1.3-2.5,3.2-7.3,2.8-10.1c-0.3,2.7-1.7,6.1-2.8,8.1c-12.4,21.5-34.1,51.8-45.6,66.8
					c-5.5,7.4-11.7,14.8-17.7,21c-11.1,10.5-32.9,29.1-49.4,35.3c-14.2,5.3-19.8,2.8-20.3-3.9c-0.5,8.1,4.8,11.7,20.3,5.9
					c16.5-6.3,38.3-24.8,49.4-35.3c6-6.3,12.2-13.6,17.7-21C634.2,177.1,656,146.8,668.3,125.3z"/>
			</g>
			<g>
				<path class="st9" d="M459.8,235.2c-8.9,7.6-17.3,11.7-18.4,8c-1.3,6.7,8.2,2.6,18.4-6c15.9-14.4,38.6-42.1,52.1-62.3
					c4.4-10.3,10.3-22.1,16.5-23.8c7.6-2.3,12.7,1.7,13.5,5.5c1-4.1-4.5-10.2-13.5-7.5c-6.2,1.8-12.1,13.5-16.5,23.8
					C498.4,193.2,475.7,220.8,459.8,235.2z"/>
				<path class="st9" d="M452,182.4c-0.3,1.5-1.3,3.3-3,5.2c-9.4,10.9-25.9,29.7-30,41.8c-1.6,4.8-2.2,9-2.1,12.4
					c0.1-3,0.8-6.4,2.1-10.4c4.1-12.1,20.6-30.9,30-41.8C451.5,186.7,452.4,184.1,452,182.4z"/>
				<path class="st9" d="M398.3,216.7c11.8-9.7,26.8-27.3,38-35.9c15.4-11.9,33.9-7.1,34.6,8c0.9-16.6-18.5-22.4-34.6-10
					c-11.2,8.5-26.2,26.2-38,35.9c-1.9,1.6-2.4,3.5-1.8,4.3C396.9,218.2,397.4,217.4,398.3,216.7z"/>
				<path class="st9" d="M320.5,293.2c0.5-1.6,2.6-0.9,2.8,1.1c4.1,22.1,23.3,37.1,45.3,37.1c30.6,0,63-26.5,88.9-61.8
					c18.2-25,33-52.6,47.1-80c-1.4,2.2-2.9,4.3-4.4,6.5c-12.8,24.5-26.3,49.1-42.7,71.5c-25.9,35.3-58.3,61.8-88.9,61.8
					c-22.1,0-41.2-15-45.3-37.1c-0.3-2.4-3.2-2.9-2.9,0.3C320.4,292.8,320.4,293,320.5,293.2z"/>
			</g>
			<g>
				<path class="st9" d="M265.6,214.7c-10.3,5.3-22.7,8.2-27.7,8.2c-4.7,0-5.3,1.5-2.8,2.2c0.7-0.2,1.6-0.2,2.8-0.2
					c5,0,17.4-2.9,27.7-8.2c11.9-6.5,16.2-13.6,15.6-18.8C280.6,202.9,276,209.1,265.6,214.7z"/>
				<path class="st9" d="M309.6,219c-5.5,14.9-8.8,28.7-8.6,40c0.3-11.7,3.9-26,9.8-41.2C310.4,218.2,310,218.6,309.6,219z"/>
				<path class="st9" d="M221.9,243.5c-0.4,9.5,4.7,16.4,15.1,16.2c16.6-0.2,43.3-19.9,60.3-34.5c0.5-0.6,1.1-1.2,1.8-1.9
					c6.2-5.3,11.2-12.1,18-20.3c19.7-43.5,42.4-77,77.1-109.1c34.5-31.7,63.2-26.8,64.2-6.7c0.9-21.8-28.6-28-64.2,4.7
					C359.4,124,336.7,157.5,317,201c-6.8,8.2-11.8,15-18,20.3c-0.7,0.6-1.3,1.3-1.8,1.9c-17,14.6-43.7,34.2-60.3,34.5
					C227.3,257.9,222.3,252,221.9,243.5z"/>
				<path class="st9" d="M375.6,159.9c-3.2,1.4-3.7,3-2.7,3.8c0.5-0.6,1.4-1.2,2.7-1.8c18.2-8.2,44.7-27.3,58.9-42.1
					c12.6-13.3,17.6-22.5,16.8-27.2c-0.6,5.1-5.8,13.6-16.8,25.2C420.3,132.5,393.8,151.6,375.6,159.9z"/>
				<path class="st9" d="M372.1,209.5c7.6-5.8,10.8-12.9,10.4-18.4c-0.4,5.1-3.7,11.3-10.4,16.4c-11.2,8.5-33.3,15-40.3,10.9
					l-1.5-0.9c-0.6-1-1.2-2.1-1.8-3.1c-0.2,0.2-0.4,0.5-0.6,0.7c0.6,1.5,1.5,2.9,2.4,4.4l1.5,0.9C338.8,224.5,360.9,218,372.1,209.5
					z"/>
				<path class="st9" d="M395.3,241c0,5-5,8.3-10.6,9.1c-12.5,1.9-36.5-11.7-49.6-26.6c-0.8-0.2-1.5-0.4-2.2-0.6
					c12.4,15.9,38.6,31.4,51.8,29.4c5.6-0.9,10.6-4.5,10.6-8.9c0-0.6,1-0.9,1.3-0.5c0.1-0.5,0.1-0.9,0.1-1.9H395.3z"/>
				<path class="st9" d="M267.3,181.5c14.2,0.4,21.3,6.1,21.9,13.5c0.6-8.3-6.4-15-21.9-15.5c-32.7-1.2-71.8,26.8-71.5,61.8
					c0,0.1,0,0.2,0,0.4C196.7,207.3,235.2,180.3,267.3,181.5z"/>
				<path class="st9" d="M371.8,171.3c-10.8,4.4-23.3,13.2-36.5,28.8c-2.1,3.3-4.1,6.4-5.9,9.4c15.3-20.3,30-31.2,42.4-36.2
					c17.7-6.8,30.8-1,31.6,9.8C404.1,171,390.5,164.1,371.8,171.3z"/>
				<path class="st9" d="M309.8,266.7c-0.1,7,1,12.5,3.6,15.6c0.5-0.3,0.8-0.9,0.1-1.9C311.1,277.7,310,272.8,309.8,266.7z"/>
			</g>
			<g>
				<path class="st9" d="M181,177.9c0.5-0.5,1.1-0.9,1.6-0.9c3.5-0.3,9.7,1.2,12.1,10.3c0.5,2.2,0.8,4.7,0.9,7.2
					c0-3.3-0.2-6.4-0.9-9.2c-2.4-9.1-8.5-10.6-12.1-10.3C181.5,175,179.5,176.9,181,177.9z"/>
				<path class="st9" d="M3.4,292.8c0.6-1.3,2.6-0.6,2.9,1.3c4.1,22.1,23,37.1,45,37.1c27.7,0,68-33.8,94.5-70.6
					c6.8-9.1,24.4-35.3,33.6-55.6c-0.7,0.9-1.4,1.7-2.2,2.6c-9.5,19.5-25.1,42.6-31.4,51c-26.5,36.8-66.8,70.6-94.5,70.6
					c-22.1,0-40.9-15-45-37.1c-0.3-2.4-3.5-2.9-2.9,0.3C3.4,292.5,3.4,292.6,3.4,292.8z"/>
				<path class="st9" d="M161.7,216.4c5.9-4.7,20.9-18.5,23-30.6c0-0.5,0-1-0.1-1.4c-2.4,11.9-17,25.4-22.8,30
					c-0.6,0.6-0.6,1.6-0.3,2.4C161.5,216.6,161.6,216.5,161.7,216.4z"/>
			</g>
			<path class="st9" d="M197.6,148.2c5.3-6.2,13.2-8.2,17.7-4.7c1.6,1.3,2.5,3.2,2.8,5.4c0.2-3-0.6-5.7-2.8-7.4
				c-4.4-3.5-12.4-1.5-17.7,4.7c-3.5,3.9-5.2,8.4-4.8,12C193.1,155,194.7,151.4,197.6,148.2z"/>
		</g>
	</g>
</g>
<g id="logo-bg-light" class="st10">
	<g id="test-tube_1_" class="st11">
		<path id="shadow_1_" class="st12" d="M747.4,15.4c-0.2,0.6-0.2,1.3,0,1.9c0,0,2.1,13.7-0.3,19.8l-99.7,259.2l0,0
			c-7.1,19,2.4,40.3,21.4,47.6c19,7.3,40.3-2.1,47.8-21l0,0l99.7-259.2c1.9-5.1,13.1-14.9,13.1-14.9c0.6-0.4,1-0.9,1.3-1.5l0-0.1
			c0.1-0.1,0.1-0.2,0.2-0.3c2.6-6.7-14-19.3-37-28.1c-23-8.9-43.8-10.6-46.3-3.9c0,0.1-0.1,0.2-0.1,0.3L747.4,15.4z"/>
		
			<linearGradient id="tube_4_" gradientUnits="userSpaceOnUse" x1="669.5791" y1="270.6961" x2="732.7349" y2="333.8519" gradientTransform="matrix(0.9138 -0.4062 0.4062 0.9138 -35.0038 187.7565)">
			<stop  offset="0" style="stop-color:#919191"/>
			<stop  offset="1" style="stop-color:#FFFFFF"/>
		</linearGradient>
		<path id="tube_1_" class="st13" d="M744.5,13.2c-0.2,0.6-0.2,1.3,0,1.9c0,0,2.1,13.7-0.3,19.8l-99.7,259.2l0,0
			c-7.1,19,2.4,40.3,21.4,47.6c19,7.3,40.3-2.1,47.8-21l0,0l99.7-259.2c1.9-5.1,13.1-14.9,13.1-14.9c0.6-0.4,1-0.9,1.3-1.5l0-0.1
			c0.1-0.1,0.1-0.2,0.2-0.3c2.6-6.7-14-19.3-37-28.1c-23-8.9-43.8-10.6-46.3-3.9c0,0.1-0.1,0.2-0.1,0.3L744.5,13.2z"/>
		
			<linearGradient id="liquid_3_" gradientUnits="userSpaceOnUse" x1="645.8314" y1="318.8753" x2="684.066" y2="357.1099" gradientTransform="matrix(0.9138 -0.4062 0.4062 0.9138 -35.0038 187.7565)">
			<stop  offset="0" style="stop-color:#990000"/>
			<stop  offset="1" style="stop-color:#E80000"/>
		</linearGradient>
		<path id="liquid_1_" class="st14" d="M775.8,130.4l-71.9,186.9l0,0c-5.3,13.4-20.7,20.4-34.4,15.1c-13.7-5.3-21.1-21-16.1-34.5
			l0,0l45.9-119.4c0,0,5.7-9.3,17-15.8c11.3-6.6,20.6-5.2,33.1-10.8C762,146.3,775.8,130.4,775.8,130.4z"/>
		<path id="top_1_" class="st3" d="M812,39.4c-1.4,3.8-14.2,2.3-28.5-3.1c-14.3-5.5-24.7-13-23.3-16.8c1.4-3.8,14.2-2.3,28.5,3.1
			C803,28.1,813.4,35.6,812,39.4z"/>
		<path id="side-reflection_1_" class="st4" d="M744.5,15.1c0,0,2,13.8-0.3,19.8l-99.7,259.2l0,0c-7.1,19,2.4,40.3,21.4,47.6
			c3.3,1.3,6.7,2,10,2.3c-12.8-9.6-18.3-26.9-12.4-42.6l0,0l97.7-254C761.3,47.4,748,34.9,744.5,15.1z"/>
		<g id="bubbles_1_">
			<path class="st5" d="M715.1,181.1c0.6,1.5,0,3.2-1.5,3.8c-1.5,0.6-3.2,0-3.8-1.5c-0.6-1.5,0-3.2,1.5-3.8
				C712.7,179,714.4,179.7,715.1,181.1z"/>
			<path class="st5" d="M735.3,201.5c1,2.2,0,4.8-2.2,5.7c-2.2,1-4.8,0-5.7-2.2c-1-2.2,0-4.8,2.2-5.7
				C731.8,198.3,734.3,199.3,735.3,201.5z"/>
			<path class="st5" d="M709.9,224.8c1.8,4.1,0,8.9-4.1,10.8c-4.1,1.8-8.9,0-10.8-4.1c-1.8-4.1,0-8.9,4.1-10.8
				C703.2,218.8,708.1,220.7,709.9,224.8z"/>
			<path class="st5" d="M693.2,241.5c1,2.2,0,4.8-2.2,5.7c-2.2,1-4.8,0-5.7-2.2c-1-2.2,0-4.8,2.2-5.7
				C689.6,238.3,692.2,239.3,693.2,241.5z"/>
			<path class="st5" d="M709.2,274.4c0.6,1.5,0,3.2-1.5,3.8c-1.5,0.6-3.2,0-3.8-1.5c-0.6-1.5,0-3.2,1.5-3.8
				C706.8,272.3,708.6,272.9,709.2,274.4z"/>
		</g>
	</g>
	<g id="jekyll-text_1_" class="st11">
		<g class="st12">
			<g>
				<path d="M198.4,166.4c4.4,3.5,12.4,1.5,17.7-4.4c5.6-6.2,6.5-14.1,2.1-17.6c-4.4-3.5-12.4-1.5-17.7,4.7
					C194.9,155.2,194,162.8,198.4,166.4z M185.4,177.8c-1.2,0-3.2,2.1-1.5,2.9c2.4,0.9,3.5,2.9,3.5,5.9c-2.1,12.1-17.1,25.9-23,30.6
					c-1.5,1.5,0.6,4.7,2.1,3.5c3.2-2.6,10-7.9,15.6-15c-9.1,20.3-26.8,46.5-33.6,55.6c-26.5,36.8-66.8,70.6-94.5,70.6
					c-22.1,0-40.9-15-45-37.1c-0.3-2.4-3.5-2.9-2.9,0.3c5,30.3,28.3,42.1,56.5,42.1c30.9,0,67.2-22.4,87.1-45.3
					c32.3-37.1,53.3-79.7,47.7-103.8C195.1,179,189,177.5,185.4,177.8z M384,258.5c8.5-2.1,15.6-6.8,15.6-14.2c0-0.7-1.5-0.7-1.5,0
					c0,4.4-5,8-10.6,8.9c-13.2,2.1-39.4-13.5-51.8-29.4c13.2,5,40.3-2.3,53-11.4c11.8-8.5,16.5-17.9,17.4-25.6
					c1.5-12.6-12.4-20-31.5-12.6c-12.4,5-27.1,15.9-42.4,36.2c16.2-26.8,48-70.3,79.2-98.2c38-33.8,60-27.3,25.9,8.5
					c-14.1,14.7-40.6,33.8-58.9,42.1c-5.6,2.4-2.9,5.6,1.2,3.8c19.4-8.5,45.3-26.2,60.9-40.9c46.2-44.4,7.7-77.9-43.6-30.9
					c-34.7,32.1-57.4,65.6-77.1,109.1c-6.8,8.2-11.8,15-18,20.3c-0.7,0.6-1.3,1.3-1.8,1.9c-17,14.6-43.7,34.2-60.3,34.5
					c-11.8,0.3-16.8-8.5-14.7-20c3.2-17.9,21.8-39.1,37.7-46.5c20.6-9.4,32.7,8.8,5.6,23.5c-10.3,5.3-22.7,8.2-27.7,8.2
					c-5.9,0-5.3,2.4-0.3,2.6c8.2,0.3,21.5-3.2,30.3-7.4c27.7-13.2,29.4-37.9-0.6-38.8c-32.7-1.2-71.8,26.8-71.5,61.8
					c0.3,15.9,13,24.4,30.3,24.4c28.9-0.3,54.7-22.3,75.8-41.6c3-2.5,6-5.3,8.9-8.2c-7.4,18.8-11.2,36.2-9.4,49.1
					c1.2,9.4,6.5,13.8,10.6,17.3c0.9,0.6,2.6,0,1.5-1.8c-6.2-7.4-4.4-29.2,4.1-50.3C327.5,247,355.2,264.9,384,258.5z M349.3,197.1
					c33.8-30.3,47.1-3.2,25.6,13.2c-11.2,8.5-33.3,15-40.3,10.9l-1.5-0.9c-0.9-1.5-1.8-2.9-2.4-4.4
					C336.3,209.2,342.8,203,349.3,197.1z M537.1,162.8c13.5,1.5,7.9-15-5.9-10.9c-6.2,1.8-12.1,13.5-16.5,23.8
					c-13.5,20.3-36.2,47.9-52.1,62.3c-14.1,12.1-27.1,15.3-11.2-7.4c6.5-9.1,14.7-18.8,19.4-28.5c11.2-24.4-12.7-35.3-31.8-20.6
					c-11.2,8.5-26.2,26.2-38,35.9c-3.2,2.6-2.4,6.5,0.9,3.8c9.4-7.6,25.9-25,40-35.3c11.8-9.1,16.5-3.2,9.7,4.4
					c-9.4,10.9-25.9,29.7-30,41.8c-5.9,17.9,1.2,25.9,12.9,25.9c16.2,0,40.3-25.3,56.5-45.3c5.3-6.8,11.2-14.7,16.2-22.3
					c-14.1,27.3-28.8,55-47.1,80c-25.9,35.3-58.3,61.8-88.9,61.8c-22.1,0-41.2-15-45.3-37.1c-0.3-2.4-3.2-2.9-2.9,0.3
					c5,30.3,28.3,42.1,56.5,42.1c30.9,0,60.6-17.9,81.5-40c42.1-44.4,47.1-94.4,60-122.3C527.1,162.8,532.7,162.2,537.1,162.8z
					 M708.2,120c6.2-10.6,5.9-18.8-8.5-18.8c-10.9,0.3-30.6,7.9-39.7,15c-2.1,2.1-1.2,3.2,1.5,2.1c1.8-0.6,3.8-1.8,5.9-2.6
					c10.3-5.6,6.2,6.2,3.8,10.6c-12.4,21.5-34.1,51.8-45.6,66.8c-5.5,7.4-11.7,14.8-17.7,21c-11.1,10.5-32.9,29.1-49.4,35.3
					c-53.6,20,14.7-71.2,20.3-78.5c12.7-15.9,40.9-43.5,49.4-57.3c6.2-10.6,5.9-18.8-8.5-18.8c-10.9,0.3-30.6,7.9-39.7,15
					c-2.1,2.1-1.2,3.2,1.5,2.1c1.8-0.6,3.8-1.8,5.9-2.6c10.3-5.6,6.2,6.2,3.8,10.6c-12.4,21.5-34.1,51.8-45.6,66.8
					c-9.4,12.6-20.9,25.3-29.7,32.3c-3.5,2.9-1.5,5.6,2.1,3.2c3.2-2.1,7.9-6.8,13.2-12.4c-9.7,19.4-17.7,46.8,7.9,50
					c21.8,3,47.8-19.3,64.5-35.8c1.8-1.8,3.9-3.8,6-6c0.5-0.5,1-1,1.5-1.5c-9.7,19.4-17.6,46.7,8,49.9c28,3.8,62.7-33.8,76.2-47.6
					c2.6-2.6,1.8-7.1-2.6-2.6c-7.9,8.2-34.7,32.6-54.2,40c-53.6,20,14.7-71.2,20.3-78.5C671.4,161.4,699.7,133.8,708.2,120z"/>
			</g>
		</g>
		<g>
			<g>
				<g>
					<linearGradient id="SVGID_3_" gradientUnits="userSpaceOnUse" x1="356.2588" y1="334.6357" x2="356.2588" y2="69.1638">
						<stop  offset="0" style="stop-color:#1A1A1A"/>
						<stop  offset="0.4026" style="stop-color:#4A4A4C"/>
						<stop  offset="1" style="stop-color:#333333"/>
					</linearGradient>
					<path class="st15" d="M195.6,163.5c4.4,3.5,12.4,1.5,17.7-4.4c5.6-6.2,6.5-14.1,2.1-17.6c-4.4-3.5-12.4-1.5-17.7,4.7
						C192,152.4,191.1,160,195.6,163.5z M182.6,175c-1.2,0-3.2,2.1-1.5,2.9c2.4,0.9,3.5,2.9,3.5,5.9c-2.1,12.1-17.1,25.9-23,30.6
						c-1.5,1.5,0.6,4.7,2.1,3.5c3.2-2.6,10-7.9,15.6-15c-9.1,20.3-26.8,46.5-33.6,55.6c-26.5,36.8-66.8,70.6-94.5,70.6
						c-22.1,0-40.9-15-45-37.1c-0.3-2.4-3.5-2.9-2.9,0.3c5,30.3,28.3,42,56.5,42c30.9,0,67.2-22.4,87.1-45.3
						c32.3-37.1,53.3-79.7,47.7-103.8C192.3,176.2,186.1,174.7,182.6,175z M381.2,255.6c8.5-2.1,15.6-6.8,15.6-14.2
						c0-0.7-1.5-0.7-1.5,0c0,4.4-5,8-10.6,8.9c-13.2,2.1-39.4-13.5-51.8-29.4c13.2,5,40.3-2.3,53-11.4c11.8-8.5,16.5-17.9,17.4-25.6
						c1.5-12.6-12.4-20-31.5-12.6c-12.4,5-27.1,15.9-42.4,36.2c16.2-26.8,48-70.3,79.2-98.2c38-33.8,60-27.3,25.9,8.5
						c-14.1,14.7-40.6,33.8-58.9,42.1c-5.6,2.4-2.9,5.6,1.2,3.8c19.4-8.5,45.3-26.2,60.9-40.9c46.2-44.4,7.7-77.9-43.6-30.9
						C359.4,124,336.7,157.5,317,201c-6.8,8.2-11.8,15-18,20.3c-0.7,0.6-1.3,1.3-1.8,1.9c-17,14.6-43.7,34.2-60.3,34.5
						c-11.8,0.3-16.8-8.5-14.7-20c3.2-17.9,21.8-39.1,37.7-46.5c20.6-9.4,32.7,8.8,5.6,23.5c-10.3,5.3-22.7,8.2-27.7,8.2
						c-5.9,0-5.3,2.4-0.3,2.6c8.2,0.3,21.5-3.2,30.3-7.4c27.7-13.2,29.4-37.9-0.6-38.8c-32.7-1.2-71.8,26.8-71.5,61.8
						c0.3,15.9,13,24.4,30.3,24.4c28.9-0.3,54.7-22.3,75.8-41.6c3-2.5,6-5.3,8.9-8.2c-7.4,18.8-11.2,36.2-9.4,49.1
						c1.2,9.4,6.5,13.8,10.6,17.3c0.9,0.6,2.6,0,1.5-1.8c-6.2-7.4-4.4-29.2,4.1-50.3C324.7,244.2,352.3,262.1,381.2,255.6z
						 M346.5,194.3c33.8-30.3,47.1-3.2,25.6,13.2c-11.2,8.5-33.3,15-40.3,10.9l-1.5-0.9c-0.9-1.5-1.8-2.9-2.4-4.4
						C333.5,206.3,340,200.2,346.5,194.3z M534.3,160c13.5,1.5,7.9-15-5.9-10.9c-6.2,1.8-12.1,13.5-16.5,23.8
						c-13.5,20.3-36.2,47.9-52.1,62.3c-14.1,12.1-27.1,15.3-11.2-7.4c6.5-9.1,14.7-18.8,19.4-28.5c11.2-24.4-12.7-35.3-31.8-20.6
						c-11.2,8.5-26.2,26.2-38,35.9c-3.2,2.6-2.4,6.5,0.9,3.8c9.4-7.6,25.9-25,40-35.3c11.8-9.1,16.5-3.2,9.7,4.4
						c-9.4,10.9-25.9,29.7-30,41.8c-5.9,17.9,1.2,25.9,12.9,25.9c16.2,0,40.3-25.3,56.5-45.3c5.3-6.8,11.2-14.7,16.2-22.3
						c-14.1,27.3-28.8,55-47.1,80c-25.9,35.3-58.3,61.8-88.9,61.8c-22.1,0-41.2-15-45.3-37.1c-0.3-2.4-3.2-2.9-2.9,0.3
						c5,30.3,28.3,42,56.5,42c30.9,0,60.6-17.9,81.5-40c42.1-44.4,47.1-94.4,60-122.3C524.3,160,529.9,159.4,534.3,160z
						 M705.4,117.1c6.2-10.6,5.9-18.8-8.5-18.8c-10.9,0.3-30.6,7.9-39.7,15c-2.1,2.1-1.2,3.2,1.5,2.1c1.8-0.6,3.8-1.8,5.9-2.6
						c10.3-5.6,6.2,6.2,3.8,10.6c-12.4,21.5-34.1,51.8-45.6,66.8c-5.5,7.4-11.7,14.8-17.7,21c-11.1,10.5-32.9,29.1-49.4,35.3
						c-53.6,20,14.7-71.2,20.3-78.5c12.7-15.9,40.9-43.5,49.4-57.3c6.2-10.6,5.9-18.8-8.5-18.8c-10.9,0.3-30.6,7.9-39.7,15
						c-2.1,2.1-1.2,3.2,1.5,2.1c1.8-0.6,3.8-1.8,5.9-2.6c10.3-5.6,6.2,6.2,3.8,10.6c-12.4,21.5-34.1,51.8-45.6,66.8
						c-9.4,12.6-20.9,25.3-29.7,32.3c-3.5,2.9-1.5,5.6,2.1,3.2c3.2-2.1,7.9-6.8,13.2-12.4c-9.7,19.4-17.7,46.8,7.9,50
						c21.8,3,47.8-19.3,64.5-35.8c1.8-1.8,3.9-3.8,6-6c0.5-0.5,1-1,1.5-1.5c-9.7,19.4-17.6,46.7,8,49.9c28,3.8,62.7-33.8,76.2-47.6
						c2.6-2.6,1.8-7.1-2.6-2.6c-7.9,8.2-34.7,32.6-54.2,40c-53.6,20,14.7-71.2,20.3-78.5C668.6,158.6,696.9,131,705.4,117.1z"/>
				</g>
			</g>
			<defs>
				<filter id="Adobe_OpacityMaskFilter_1_" filterUnits="userSpaceOnUse" x="3.3" y="69.2" width="705.9" height="265.5">
					
						<feColorMatrix  type="matrix" values="-1 0 0 0 1  0 -1 0 0 1  0 0 -1 0 1  0 0 0 1 0" color-interpolation-filters="sRGB" result="source"/>
				</filter>
			</defs>
			<mask maskUnits="userSpaceOnUse" x="3.3" y="69.2" width="705.9" height="265.5" id="SVGID_4_">
				<g class="st16">
					
						<image style="overflow:visible;" width="711" height="270" xlink:href="C475C671197901F5.jpg"  transform="matrix(1 0 0 1 1 67)">
					</image>
				</g>
			</mask>
			<g class="st17">
				<g>
					<path class="st9" d="M195.6,163.5c4.4,3.5,12.4,1.5,17.7-4.4c5.6-6.2,6.5-14.1,2.1-17.6c-4.4-3.5-12.4-1.5-17.7,4.7
						C192,152.4,191.1,160,195.6,163.5z M182.6,175c-1.2,0-3.2,2.1-1.5,2.9c2.4,0.9,3.5,2.9,3.5,5.9c-2.1,12.1-17.1,25.9-23,30.6
						c-1.5,1.5,0.6,4.7,2.1,3.5c3.2-2.6,10-7.9,15.6-15c-9.1,20.3-26.8,46.5-33.6,55.6c-26.5,36.8-66.8,70.6-94.5,70.6
						c-22.1,0-40.9-15-45-37.1c-0.3-2.4-3.5-2.9-2.9,0.3c5,30.3,28.3,42,56.5,42c30.9,0,67.2-22.4,87.1-45.3
						c32.3-37.1,53.3-79.7,47.7-103.8C192.3,176.2,186.1,174.7,182.6,175z M381.2,255.6c8.5-2.1,15.6-6.8,15.6-14.2
						c0-0.7-1.5-0.7-1.5,0c0,4.4-5,8-10.6,8.9c-13.2,2.1-39.4-13.5-51.8-29.4c13.2,5,40.3-2.3,53-11.4c11.8-8.5,16.5-17.9,17.4-25.6
						c1.5-12.6-12.4-20-31.5-12.6c-12.4,5-27.1,15.9-42.4,36.2c16.2-26.8,48-70.3,79.2-98.2c38-33.8,60-27.3,25.9,8.5
						c-14.1,14.7-40.6,33.8-58.9,42.1c-5.6,2.4-2.9,5.6,1.2,3.8c19.4-8.5,45.3-26.2,60.9-40.9c46.2-44.4,7.7-77.9-43.6-30.9
						C359.4,124,336.7,157.5,317,201c-6.8,8.2-11.8,15-18,20.3c-0.7,0.6-1.3,1.3-1.8,1.9c-17,14.6-43.7,34.2-60.3,34.5
						c-11.8,0.3-16.8-8.5-14.7-20c3.2-17.9,21.8-39.1,37.7-46.5c20.6-9.4,32.7,8.8,5.6,23.5c-10.3,5.3-22.7,8.2-27.7,8.2
						c-5.9,0-5.3,2.4-0.3,2.6c8.2,0.3,21.5-3.2,30.3-7.4c27.7-13.2,29.4-37.9-0.6-38.8c-32.7-1.2-71.8,26.8-71.5,61.8
						c0.3,15.9,13,24.4,30.3,24.4c28.9-0.3,54.7-22.3,75.8-41.6c3-2.5,6-5.3,8.9-8.2c-7.4,18.8-11.2,36.2-9.4,49.1
						c1.2,9.4,6.5,13.8,10.6,17.3c0.9,0.6,2.6,0,1.5-1.8c-6.2-7.4-4.4-29.2,4.1-50.3C324.7,244.2,352.3,262.1,381.2,255.6z
						 M346.5,194.3c33.8-30.3,47.1-3.2,25.6,13.2c-11.2,8.5-33.3,15-40.3,10.9l-1.5-0.9c-0.9-1.5-1.8-2.9-2.4-4.4
						C333.5,206.3,340,200.2,346.5,194.3z M534.3,160c13.5,1.5,7.9-15-5.9-10.9c-6.2,1.8-12.1,13.5-16.5,23.8
						c-13.5,20.3-36.2,47.9-52.1,62.3c-14.1,12.1-27.1,15.3-11.2-7.4c6.5-9.1,14.7-18.8,19.4-28.5c11.2-24.4-12.7-35.3-31.8-20.6
						c-11.2,8.5-26.2,26.2-38,35.9c-3.2,2.6-2.4,6.5,0.9,3.8c9.4-7.6,25.9-25,40-35.3c11.8-9.1,16.5-3.2,9.7,4.4
						c-9.4,10.9-25.9,29.7-30,41.8c-5.9,17.9,1.2,25.9,12.9,25.9c16.2,0,40.3-25.3,56.5-45.3c5.3-6.8,11.2-14.7,16.2-22.3
						c-14.1,27.3-28.8,55-47.1,80c-25.9,35.3-58.3,61.8-88.9,61.8c-22.1,0-41.2-15-45.3-37.1c-0.3-2.4-3.2-2.9-2.9,0.3
						c5,30.3,28.3,42,56.5,42c30.9,0,60.6-17.9,81.5-40c42.1-44.4,47.1-94.4,60-122.3C524.3,160,529.9,159.4,534.3,160z
						 M705.4,117.1c6.2-10.6,5.9-18.8-8.5-18.8c-10.9,0.3-30.6,7.9-39.7,15c-2.1,2.1-1.2,3.2,1.5,2.1c1.8-0.6,3.8-1.8,5.9-2.6
						c10.3-5.6,6.2,6.2,3.8,10.6c-12.4,21.5-34.1,51.8-45.6,66.8c-5.5,7.4-11.7,14.8-17.7,21c-11.1,10.5-32.9,29.1-49.4,35.3
						c-53.6,20,14.7-71.2,20.3-78.5c12.7-15.9,40.9-43.5,49.4-57.3c6.2-10.6,5.9-18.8-8.5-18.8c-10.9,0.3-30.6,7.9-39.7,15
						c-2.1,2.1-1.2,3.2,1.5,2.1c1.8-0.6,3.8-1.8,5.9-2.6c10.3-5.6,6.2,6.2,3.8,10.6c-12.4,21.5-34.1,51.8-45.6,66.8
						c-9.4,12.6-20.9,25.3-29.7,32.3c-3.5,2.9-1.5,5.6,2.1,3.2c3.2-2.1,7.9-6.8,13.2-12.4c-9.7,19.4-17.7,46.8,7.9,50
						c21.8,3,47.8-19.3,64.5-35.8c1.8-1.8,3.9-3.8,6-6c0.5-0.5,1-1,1.5-1.5c-9.7,19.4-17.6,46.7,8,49.9c28,3.8,62.7-33.8,76.2-47.6
						c2.6-2.6,1.8-7.1-2.6-2.6c-7.9,8.2-34.7,32.6-54.2,40c-53.6,20,14.7-71.2,20.3-78.5C668.6,158.6,696.9,131,705.4,117.1z"/>
				</g>
			</g>
		</g>
		<g id="highlight_1_" class="st18">
			<g class="st11">
				<path class="st9" d="M606.8,216.9c-0.1,0.1-0.3,0.3-0.4,0.4c-4.2,9.1-7.6,19.4-7.3,28c0.3-9.4,4.5-20.6,9.2-29.9
					C607.8,215.9,607.3,216.4,606.8,216.9z"/>
				<path class="st9" d="M526.3,210.7c-4.2,9.1-7.6,19.4-7.3,28c0.3-9.5,4.6-20.7,9.2-30C527.6,209.4,527,210.1,526.3,210.7z"/>
				<path class="st9" d="M656.7,115.8c0.1-0.2,0.3-0.3,0.5-0.5c9.1-7.1,28.8-14.7,39.7-15c8.2,0,11.9,2.7,12.3,7
					c0.5-5.4-2.9-9-12.3-9c-10.9,0.3-30.6,7.9-39.7,15C655.7,114.7,655.7,115.7,656.7,115.8z"/>
				<path class="st9" d="M689.8,213c-7.9,8.2-34.7,32.6-54.2,40c-14.2,5.3-19.8,2.8-20.3-3.9c-0.5,8.1,4.8,11.7,20.3,5.9
					c19.4-7.4,46.2-31.8,54.2-40c2.1-2.1,3.5-2.2,3.9-1.4C694.5,211.4,693.2,209.6,689.8,213z"/>
				<path class="st9" d="M513,217.8c8.8-7.1,20.3-19.7,29.7-32.3c11.5-15,33.3-45.3,45.6-66.8c1.3-2.5,3.2-7.3,2.8-10.1
					c-0.3,2.7-1.7,6.1-2.8,8.1c-12.4,21.5-34.1,51.8-45.6,66.8c-9.4,12.6-20.9,25.3-29.7,32.3c-1.9,1.6-2.2,3-1.5,3.7
					C511.7,219,512.2,218.4,513,217.8z"/>
				<path class="st9" d="M576.6,109.3c0.1-0.2,0.3-0.3,0.5-0.5c9.1-7.1,28.8-14.7,39.7-15c8.2,0,11.9,2.7,12.3,7
					c0.5-5.4-2.9-9-12.3-9c-10.9,0.3-30.6,7.9-39.7,15C575.7,108.2,575.7,109.1,576.6,109.3z"/>
				<path class="st9" d="M668.3,125.3c1.3-2.5,3.2-7.3,2.8-10.1c-0.3,2.7-1.7,6.1-2.8,8.1c-12.4,21.5-34.1,51.8-45.6,66.8
					c-5.5,7.4-11.7,14.8-17.7,21c-11.1,10.5-32.9,29.1-49.4,35.3c-14.2,5.3-19.8,2.8-20.3-3.9c-0.5,8.1,4.8,11.7,20.3,5.9
					c16.5-6.3,38.3-24.8,49.4-35.3c6-6.3,12.2-13.6,17.7-21C634.2,177.1,656,146.8,668.3,125.3z"/>
			</g>
			<g class="st11">
				<path class="st9" d="M459.8,235.2c-8.9,7.6-17.3,11.7-18.4,8c-1.3,6.7,8.2,2.6,18.4-6c15.9-14.4,38.6-42.1,52.1-62.3
					c4.4-10.3,10.3-22.1,16.5-23.8c7.6-2.3,12.7,1.7,13.5,5.5c1-4.1-4.5-10.2-13.5-7.5c-6.2,1.8-12.1,13.5-16.5,23.8
					C498.4,193.2,475.7,220.8,459.8,235.2z"/>
				<path class="st9" d="M452,182.4c-0.3,1.5-1.3,3.3-3,5.2c-9.4,10.9-25.9,29.7-30,41.8c-1.6,4.8-2.2,9-2.1,12.4
					c0.1-3,0.8-6.4,2.1-10.4c4.1-12.1,20.6-30.9,30-41.8C451.5,186.7,452.4,184.1,452,182.4z"/>
				<path class="st9" d="M398.3,216.7c11.8-9.7,26.8-27.3,38-35.9c15.4-11.9,33.9-7.1,34.6,8c0.9-16.6-18.5-22.4-34.6-10
					c-11.2,8.5-26.2,26.2-38,35.9c-1.9,1.6-2.4,3.5-1.8,4.3C396.9,218.2,397.4,217.4,398.3,216.7z"/>
				<path class="st9" d="M320.5,293.2c0.5-1.6,2.6-0.9,2.8,1.1c4.1,22.1,23.3,37.1,45.3,37.1c30.6,0,63-26.5,88.9-61.8
					c18.2-25,33-52.6,47.1-80c-1.4,2.2-2.9,4.3-4.4,6.5c-12.8,24.5-26.3,49.1-42.7,71.5c-25.9,35.3-58.3,61.8-88.9,61.8
					c-22.1,0-41.2-15-45.3-37.1c-0.3-2.4-3.2-2.9-2.9,0.3C320.4,292.8,320.4,293,320.5,293.2z"/>
			</g>
			<g class="st11">
				<path class="st9" d="M265.6,214.7c-10.3,5.3-22.7,8.2-27.7,8.2c-4.7,0-5.3,1.5-2.8,2.2c0.7-0.2,1.6-0.2,2.8-0.2
					c5,0,17.4-2.9,27.7-8.2c11.9-6.5,16.2-13.6,15.6-18.8C280.6,202.9,276,209.1,265.6,214.7z"/>
				<path class="st9" d="M309.6,219c-5.5,14.9-8.8,28.7-8.6,40c0.3-11.7,3.9-26,9.8-41.2C310.4,218.2,310,218.6,309.6,219z"/>
				<path class="st9" d="M221.9,243.5c-0.4,9.5,4.7,16.4,15.1,16.2c16.6-0.2,43.3-19.9,60.3-34.5c0.5-0.6,1.1-1.2,1.8-1.9
					c6.2-5.3,11.2-12.1,18-20.3c19.7-43.5,42.4-77,77.1-109.1c34.5-31.7,63.2-26.8,64.2-6.7c0.9-21.8-28.6-28-64.2,4.7
					C359.4,124,336.7,157.5,317,201c-6.8,8.2-11.8,15-18,20.3c-0.7,0.6-1.3,1.3-1.8,1.9c-17,14.6-43.7,34.2-60.3,34.5
					C227.3,257.9,222.3,252,221.9,243.5z"/>
				<path class="st9" d="M375.6,159.9c-3.2,1.4-3.7,3-2.7,3.8c0.5-0.6,1.4-1.2,2.7-1.8c18.2-8.2,44.7-27.3,58.9-42.1
					c12.6-13.3,17.6-22.5,16.8-27.2c-0.6,5.1-5.8,13.6-16.8,25.2C420.3,132.5,393.8,151.6,375.6,159.9z"/>
				<path class="st9" d="M372.1,209.5c7.6-5.8,10.8-12.9,10.4-18.4c-0.4,5.1-3.7,11.3-10.4,16.4c-11.2,8.5-33.3,15-40.3,10.9
					l-1.5-0.9c-0.6-1-1.2-2.1-1.8-3.1c-0.2,0.2-0.4,0.5-0.6,0.7c0.6,1.5,1.5,2.9,2.4,4.4l1.5,0.9C338.8,224.5,360.9,218,372.1,209.5
					z"/>
				<path class="st9" d="M395.3,241c0,5-5,8.3-10.6,9.1c-12.5,1.9-36.5-11.7-49.6-26.6c-0.8-0.2-1.5-0.4-2.2-0.6
					c12.4,15.9,38.6,31.4,51.8,29.4c5.6-0.9,10.6-4.5,10.6-8.9c0-0.6,1-0.9,1.3-0.5c0.1-0.5,0.1-0.9,0.1-1.9H395.3z"/>
				<path class="st9" d="M267.3,181.5c14.2,0.4,21.3,6.1,21.9,13.5c0.6-8.3-6.4-15-21.9-15.5c-32.7-1.2-71.8,26.8-71.5,61.8
					c0,0.1,0,0.2,0,0.4C196.7,207.3,235.2,180.3,267.3,181.5z"/>
				<path class="st9" d="M371.8,171.3c-10.8,4.4-23.3,13.2-36.5,28.8c-2.1,3.3-4.1,6.4-5.9,9.4c15.3-20.3,30-31.2,42.4-36.2
					c17.7-6.8,30.8-1,31.6,9.8C404.1,171,390.5,164.1,371.8,171.3z"/>
				<path class="st9" d="M309.8,266.7c-0.1,7,1,12.5,3.6,15.6c0.5-0.3,0.8-0.9,0.1-1.9C311.1,277.7,310,272.8,309.8,266.7z"/>
			</g>
			<g class="st11">
				<path class="st9" d="M181,177.9c0.5-0.5,1.1-0.9,1.6-0.9c3.5-0.3,9.7,1.2,12.1,10.3c0.5,2.2,0.8,4.7,0.9,7.2
					c0-3.3-0.2-6.4-0.9-9.2c-2.4-9.1-8.5-10.6-12.1-10.3C181.5,175,179.5,176.9,181,177.9z"/>
				<path class="st9" d="M3.4,292.8c0.6-1.3,2.6-0.6,2.9,1.3c4.1,22.1,23,37.1,45,37.1c27.7,0,68-33.8,94.5-70.6
					c6.8-9.1,24.4-35.3,33.6-55.6c-0.7,0.9-1.4,1.7-2.2,2.6c-9.5,19.5-25.1,42.6-31.4,51c-26.5,36.8-66.8,70.6-94.5,70.6
					c-22.1,0-40.9-15-45-37.1c-0.3-2.4-3.5-2.9-2.9,0.3C3.4,292.5,3.4,292.6,3.4,292.8z"/>
				<path class="st9" d="M161.7,216.4c5.9-4.7,20.9-18.5,23-30.6c0-0.5,0-1-0.1-1.4c-2.4,11.9-17,25.4-22.8,30
					c-0.6,0.6-0.6,1.6-0.3,2.4C161.5,216.6,161.6,216.5,161.7,216.4z"/>
			</g>
			<path class="st19" d="M197.6,148.2c5.3-6.2,13.2-8.2,17.7-4.7c1.6,1.3,2.5,3.2,2.8,5.4c0.2-3-0.6-5.7-2.8-7.4
				c-4.4-3.5-12.4-1.5-17.7,4.7c-3.5,3.9-5.2,8.4-4.8,12C193.1,155,194.7,151.4,197.6,148.2z"/>
		</g>
	</g>
</g>
</svg>
