<?xml version="1.0" encoding="utf-8"?>
<!-- Generator: Adobe Illustrator 22.0.1, SVG Export Plug-In . SVG Version: 6.00 Build 0)  -->
<svg version="1.1" id="Layer_1" xmlns="http://www.w3.org/2000/svg" xmlns:xlink="http://www.w3.org/1999/xlink" x="0px" y="0px"
	 viewBox="0 0 66 94" style="enable-background:new 0 0 66 94;" xml:space="preserve">
<style type="text/css">
	.st0{fill:#8DCF3F;}
	.st1{fill:#FFFFFF;}
</style>
<path class="st0" d="M35.8,0.7l0.9,0C55.5,1,66.3,16.8,66,39.3c-0.5,32.6-18.7,54.3-43.9,54L9.7,93.1c-5.3-12-8.8-27.7-8.5-44.6
	C1.6,18.6,13.8,0.4,35.8,0.7z"/>
<g>
	<path class="st1" d="M11.2,63.8c-0.3-0.2-0.6-0.5-0.6-1c0-0.7,0.5-1.1,1.1-1.1c0.2,0,0.4,0.1,0.6,0.2c1,0.6,2,0.9,2.8,0.9
		c0.8,0,1.2-0.3,1.2-0.8v0c0-0.6-1-0.8-2.1-1.2c-1.4-0.4-3.1-1.1-3.1-3.1v0c0-2.1,1.7-3.3,3.8-3.3c1.1,0,2.2,0.3,3.2,0.8
		c0.4,0.2,0.7,0.6,0.7,1.1c0,0.7-0.5,1.1-1.2,1.1c-0.2,0-0.3,0-0.5-0.1c-0.8-0.4-1.6-0.7-2.2-0.7c-0.7,0-1.1,0.3-1.1,0.7v0
		c0,0.6,1,0.8,2.1,1.2c1.4,0.5,3.1,1.2,3.1,3v0c0,2.3-1.7,3.3-3.9,3.3C13.8,65,12.4,64.6,11.2,63.8z M20.8,52.1
		c0-0.8,0.7-1.4,1.6-1.4s1.6,0.5,1.6,1.4v0c0,0.8-0.7,1.4-1.6,1.4S20.8,53,20.8,52.1L20.8,52.1z M21,55.9c0-0.8,0.6-1.5,1.5-1.5
		c0.8,0,1.5,0.7,1.5,1.5v7.6c0,0.8-0.7,1.5-1.5,1.5c-0.8,0-1.5-0.7-1.5-1.5V55.9z M26.9,61.9V57h-0.1c-0.7,0-1.2-0.6-1.2-1.2
		c0-0.7,0.6-1.2,1.2-1.2h0.1v-1.3c0-0.8,0.7-1.5,1.5-1.5c0.8,0,1.5,0.7,1.5,1.5v1.3H31c0.7,0,1.2,0.6,1.2,1.2c0,0.7-0.6,1.2-1.2,1.2
		h-1.3v4.4c0,0.7,0.3,1,0.9,1l0.3,0c0.6,0,1.2,0.5,1.2,1.2c0,0.5-0.3,0.9-0.7,1.1c-0.5,0.2-1,0.3-1.7,0.3
		C28.1,65,26.9,64.3,26.9,61.9z M38.7,65c-3.1,0-5.4-2.2-5.4-5.3v0c0-2.9,2.1-5.3,5.1-5.3c3.4,0,4.9,2.8,4.9,4.9
		c0,0.8-0.6,1.4-1.4,1.4h-5.8c0.3,1.3,1.2,2,2.5,2c0.8,0,1.5-0.2,2.1-0.7c0.2-0.2,0.4-0.2,0.7-0.2c0.6,0,1.1,0.5,1.1,1.1
		c0,0.4-0.2,0.7-0.4,0.9C41.3,64.6,40.2,65,38.7,65z M40.6,58.9c-0.2-1.3-0.9-2.2-2.2-2.2c-1.2,0-2,0.9-2.2,2.2H40.6z M11.6,68.6
		c0-0.8,0.6-1.5,1.5-1.5c0.8,0,1.5,0.7,1.5,1.5v11.3c0,0.8-0.7,1.5-1.5,1.5c-0.8,0-1.5-0.7-1.5-1.5V68.6z M21.3,81.4
		c-3.1,0-5.4-2.2-5.4-5.3v0c0-2.9,2.1-5.3,5.1-5.3c3.4,0,4.9,2.8,4.9,4.9c0,0.8-0.6,1.4-1.4,1.4h-5.8c0.3,1.3,1.2,2,2.5,2
		c0.8,0,1.5-0.2,2.1-0.7c0.2-0.2,0.4-0.2,0.7-0.2c0.7,0,1.1,0.5,1.1,1.1c0,0.4-0.2,0.7-0.4,0.9C24,81,22.8,81.4,21.3,81.4z
		 M23.2,75.3C23,74,22.3,73.1,21,73.1c-1.2,0-2,0.9-2.2,2.2C18.8,75.3,23.2,75.3,23.2,75.3z M26.7,78.3L26.7,78.3
		c0-2.3,1.7-3.3,4.1-3.3c1,0,1.8,0.2,2.5,0.4v-0.2c0-1.2-0.7-1.9-2.2-1.9c-0.8,0-1.5,0.1-2,0.3c-0.2,0.1-0.3,0.1-0.4,0.1
		c-0.7,0-1.2-0.5-1.2-1.2c0-0.5,0.3-1,0.8-1.1c0.9-0.3,1.9-0.5,3.3-0.5c1.6,0,2.7,0.4,3.5,1.1c0.8,0.8,1.1,1.9,1.1,3.3v4.7
		c0,0.8-0.6,1.4-1.4,1.4c-0.8,0-1.4-0.6-1.4-1.2v0c-0.7,0.8-1.7,1.3-3.1,1.3C28.3,81.4,26.7,80.3,26.7,78.3L26.7,78.3z M33.4,77.6
		v-0.5c-0.5-0.2-1.1-0.4-1.9-0.4c-1.2,0-2,0.5-2,1.4v0c0,0.8,0.7,1.2,1.6,1.2C32.5,79.4,33.4,78.6,33.4,77.6z M38.3,73.4h-0.1
		c-0.7,0-1.2-0.5-1.2-1.2c0-0.7,0.5-1.2,1.2-1.2h0.1v-0.7c0-1.1,0.3-2,0.8-2.5c0.5-0.5,1.3-0.8,2.4-0.8c0.5,0,0.9,0,1.2,0.1
		c0.5,0.1,1,0.5,1,1.2c0,0.7-0.5,1.2-1.2,1.2h-0.2c-0.7,0-1.1,0.3-1.1,1.1v0.4h1.3c0.7,0,1.2,0.5,1.2,1.2c0,0.7-0.5,1.2-1.2,1.2
		h-1.2v6.4c0,0.8-0.7,1.5-1.5,1.5s-1.5-0.7-1.5-1.5C38.3,79.9,38.3,73.4,38.3,73.4z"/>
</g>
</svg>
