<?xml version="1.0" encoding="utf-8"?>
<!-- Generator: Adobe Illustrator 15.0.2, SVG Export Plug-In . SVG Version: 6.00 Build 0)  -->
<!DOCTYPE svg PUBLIC "-//W3C//DTD SVG 1.0//EN" "http://www.w3.org/TR/2001/REC-SVG-20010904/DTD/svg10.dtd" [
	<!ENTITY st0 "fill-rule:evenodd;clip-rule:evenodd;fill:#DBDCDD;">
	<!ENTITY st1 "fill:#DBDCDD;">
]>
<svg version="1.0" id="Layer_1" xmlns="http://www.w3.org/2000/svg" xmlns:xlink="http://www.w3.org/1999/xlink" x="0px" y="0px"
	 width="100px" height="44px" viewBox="0 0 100 44" style="enable-background:new 0 0 100 44;" xml:space="preserve">
<g>
	<g>
		<g>
			<path style="&st0;" d="M23.186,7.84c-0.974,0.002-1.807-0.365-2.497-1.102c-0.69-0.739-1.037-1.611-1.039-2.62
				c-0.002-1.04,0.339-1.931,1.026-2.673c0.687-0.74,1.519-1.112,2.492-1.114c0.94-0.002,1.758,0.366,2.446,1.103
				c0.691,0.739,1.037,1.628,1.039,2.668c0.002,1.009-0.339,1.883-1.027,2.625C24.942,7.466,24.125,7.837,23.186,7.84L23.186,7.84z
				 M23.186,7.84"/>
			<path style="&st0;" d="M20.554,32.871c-0.001-0.641-0.005-2.172-0.009-3.711L20.51,14.198c-0.003-1.507-0.006-2.544-0.007-3.127
				l5.369-0.013c0.001,0.596,0.003,1.62,0.007,3.031l0.035,14.768c0.004,1.636,0.008,3.225,0.009,4.002L20.554,32.871z
				 M20.554,32.871"/>
			<path style="&st0;" d="M36.049,11.035l3.996-0.009l0.011,4.886c-0.16,0-0.485,0.001-0.89,0.002
				c-0.436,0.001-0.652,0.002-1.038,0.003l-2.068,0.005l0.021,9.075c0.005,2.148,0.714,3.221,2.125,3.219
				c0.993-0.003,2.018-0.277,2.817-0.826l0.011,4.809c-1.185,0.646-2.736,0.969-4.405,0.973c-2.34,0.006-3.962-0.823-4.863-2.488
				c-0.677-1.25-1.018-3.221-1.024-5.916l-0.021-8.736l0,0v-0.096l-0.674,0.001c-0.417,0.001-1.252,0.003-1.888,0.004l-0.012-4.886
				l2.609-0.006l-0.004-1.875c-0.002-0.898-0.003-1.613-0.005-2.165l5.292-0.013c0.001,0.579,0.003,1.299,0.005,2.068L36.049,11.035
				z M36.049,11.035"/>
			<path style="&st0;" d="M52.629,10.851c-1.376,0.003-2.692,0.489-4.199,1.455l-0.02-8.419c-0.004-1.828-0.009-3.801-0.009-3.801
				l-5.368,0.013c0,0,0.004,1.909,0.009,3.801l0.06,25.449c0.003,1.472,0.008,3.47,0.008,3.47l5.368-0.012l-0.004-1.635
				c0,0-0.003-1.292-0.004-1.836l-0.028-11.835c1.12-1.061,2.081-1.592,3.143-1.595c1.219-0.003,2.087,0.603,2.731,1.821
				c0.484,0.961,0.727,2.162,0.73,3.606l-0.012,6.495c0.003,1.092,0.012,4.963,0.012,4.963l5.365-0.013L60.4,27.911l-0.016-6.59
				c-0.006-2.79-0.637-5.162-1.891-7.115C57.076,11.964,55.166,10.845,52.629,10.851L52.629,10.851z M52.629,10.851"/>
			<path style="&st0;" d="M69.65,32.949c-2.533,0.006-4.41-1.112-5.636-3.353c-0.966-1.829-1.452-4.214-1.46-7.165l-0.016-7.034
				c-0.006-2.18-0.012-4.425-0.012-4.425l5.354-0.013l0.011,4.522l0.001,6.937c0.005,1.827,0.216,3.142,0.636,3.942
				c0.484,0.995,1.369,1.489,2.648,1.486c0.899-0.002,1.909-0.533,3.025-1.596l-0.029-12.275c-0.001-0.544-0.004-1.875-0.004-1.875
				l-0.003-1.156l5.295-0.012c0,0,0.003,1.555,0.007,3.031l0.036,15.162c0.004,1.892,0.009,3.607,0.009,3.607l-5.147,0.012
				l-0.004-1.729C72.887,32.301,71.318,32.945,69.65,32.949L69.65,32.949z M69.65,32.949"/>
			<path style="&st0;" d="M91.555,32.85c-1.732,0.004-3.492-0.618-4.648-1.863l0.004,1.729l-5.082,0.013
				c0,0-0.004-1.557-0.007-3.029L81.76,3.809c-0.004-1.892-0.008-3.801-0.008-3.801l5.371-0.013c0,0,0.004,1.973,0.009,3.801
				l0.02,8.371c1.472-0.934,3.229-1.404,4.641-1.408c2.53-0.006,4.524,1.112,5.973,3.355c1.224,1.953,1.837,4.577,1.843,7.367
				c0.007,2.855-0.627,5.531-1.904,7.65C96.17,31.605,94.119,32.844,91.555,32.85L91.555,32.85z M90.289,15.815
				c-1.058,0.003-1.975,0.533-3.125,1.595l0.02,8.763c1.027,0.993,1.851,1.487,2.844,1.485c1.25-0.003,2.698-0.696,3.34-2.077
				c0.51-1.09,0.76-2.58,0.757-4.088C94.115,17.871,92.499,15.81,90.289,15.815L90.289,15.815z M90.289,15.815"/>
		</g>
		<g>
			<path style="&st1;" d="M24.341,37.033c-0.306-0.412-0.698-0.675-1.232-0.674c-0.513,0.002-1.002,0.396-1,0.93
				c0.003,1.383,3.259,0.797,3.266,3.557c0.004,1.645-1.017,2.813-2.696,2.818c-1.134,0.002-1.963-0.65-2.533-1.597l1.034-1.017
				c0.219,0.633,0.798,1.197,1.486,1.196c0.652-0.002,1.056-0.558,1.054-1.192c-0.001-0.848-0.788-1.086-1.432-1.334
				c-1.059-0.436-1.834-0.967-1.837-2.242c-0.003-1.364,1.008-2.465,2.392-2.469c0.731-0.002,1.745,0.354,2.248,0.908L24.341,37.033
				z"/>
			<path style="&st1;" d="M29.893,43.646c-2.507,0.006-4.071-1.91-4.076-4.328c-0.006-2.442,1.604-4.319,4.056-4.325
				c2.453-0.006,4.07,1.864,4.076,4.306C33.954,41.718,32.399,43.641,29.893,43.646z M29.876,36.574
				c-1.514,0.003-2.406,1.346-2.402,2.674c0.003,1.266,0.639,2.823,2.415,2.819c1.777-0.005,2.405-1.565,2.402-2.831
				C32.288,37.909,31.391,36.57,29.876,36.574z"/>
			<path style="&st1;" d="M40.221,37.367c-0.449-0.545-1.125-0.871-1.812-0.869c-1.538,0.004-2.416,1.422-2.413,2.842
				c0.003,1.382,0.921,2.766,2.414,2.762c0.687-0.002,1.373-0.365,1.82-0.875l0.004,1.906c-0.6,0.285-1.199,0.492-1.862,0.494
				c-2.312,0.005-4.027-1.986-4.033-4.252c-0.005-2.332,1.636-4.396,4.045-4.402c0.643-0.001,1.276,0.172,1.832,0.475L40.221,37.367
				z"/>
			<path style="&st1;" d="M42.894,43.398l-1.604,0.004l-0.02-8.219l1.604-0.004L42.894,43.398z"/>
			<path style="&st1;" d="M45.733,41.66l-0.671,1.734l-1.69,0.004l3.187-8.444l1.242-0.003l3.136,8.43l-1.711,0.004l-0.635-1.731
				L45.733,41.66z M47.108,37.359h-0.021l-0.898,2.992l1.951-0.005L47.108,37.359z"/>
			<path style="&st1;" d="M53.028,41.98l2.265-0.006l0.003,1.396l-3.87,0.009l-0.019-8.22l1.604-0.004L53.028,41.98z"/>
			<path style="&st1;" d="M64.439,37.311c-0.45-0.545-1.125-0.871-1.812-0.869c-1.54,0.004-2.418,1.422-2.414,2.842
				c0.004,1.382,0.922,2.765,2.415,2.762c0.687-0.002,1.373-0.365,1.82-0.875l0.005,1.906c-0.598,0.285-1.201,0.492-1.863,0.494
				c-2.312,0.005-4.029-1.986-4.035-4.252c-0.006-2.332,1.637-4.396,4.045-4.402c0.645-0.001,1.277,0.172,1.835,0.475L64.439,37.311
				z"/>
			<path style="&st1;" d="M69.184,43.555c-2.508,0.006-4.072-1.91-4.078-4.329c-0.006-2.442,1.604-4.318,4.058-4.325
				c2.45-0.005,4.067,1.864,4.073,4.307C73.242,41.625,71.688,43.549,69.184,43.555z M69.167,36.481
				c-1.517,0.004-2.407,1.347-2.404,2.675c0.003,1.265,0.64,2.823,2.417,2.818c1.775-0.004,2.404-1.564,2.4-2.83
				C71.577,37.816,70.68,36.479,69.167,36.481z"/>
			<path style="&st1;" d="M74.01,35.105l2.292-0.005c2.373-0.005,3.972,1.769,3.977,4.11c0.005,2.314-1.627,4.104-3.968,4.109
				l-2.281,0.006L74.01,35.105z M75.631,41.928l0.258-0.001c1.977-0.005,2.737-1.097,2.733-2.72
				c-0.005-1.789-0.923-2.713-2.745-2.708L75.619,36.5L75.631,41.928z"/>
			<path style="&st1;" d="M82.672,43.306L81.07,43.31l-0.02-8.22l1.603-0.004L82.672,43.306z"/>
			<path style="&st1;" d="M83.818,34.867l1.157-0.004l4.339,5.733h0.023l-0.014-5.526l1.604-0.004l0.02,8.385l-1.154,0.002
				l-4.344-5.734h-0.018l0.013,5.58l-1.606,0.004L83.818,34.867z"/>
			<path style="&st1;" d="M99.363,38.896v0.207c0.006,2.321-1.178,4.384-3.729,4.39c-2.4,0.006-3.92-2.019-3.926-4.283
				c-0.006-2.345,1.547-4.364,4.001-4.37c1.397-0.003,2.618,0.702,3.253,1.954l-1.412,0.766c-0.331-0.74-1.031-1.306-1.879-1.304
				c-1.547,0.004-2.309,1.585-2.305,2.95c0.003,1.361,0.779,2.875,2.33,2.871c1.003-0.003,1.838-0.877,1.866-1.869l-1.743,0.005
				l-0.004-1.308L99.363,38.896z"/>
		</g>
	</g>
	<path style="&st1;" d="M18.501,10.868l0.012,4.937c-0.431,0.145-1.039,0.338-1.853,0.532c0.241,0.719,0.387,1.438,0.388,2.061
		c0.01,4.074-2.714,7.484-6.596,8.068c-1.293,0.195-2.428,0.868-2.425,2.066c0.004,1.912,2.483,2.247,3.538,2.389
		c4.555,0.708,6.41,3.197,6.418,6.383c0.009,3.928-2.505,6.488-8.401,6.502c-2.444,0.006-4.868-0.168-6.451-1.026
		c-1.968-1.098-2.726-2.773-2.731-5.122c-0.006-2.684,1.223-4.509,4.192-5.521l0-0.097c-1.104-0.668-1.634-1.917-1.637-3.401
		c-0.003-1.35,0.521-2.588,1.526-3.021l0-0.096c-1.007-0.332-1.919-1.146-2.737-2.39c-0.914-1.34-1.349-2.777-1.353-4.311
		c-0.005-2.301,0.805-4.22,2.432-5.757c1.578-1.442,3.903-2.166,6.06-2.171c1.582-0.003,3.021,0.376,4.364,1.14
		C14.781,12.027,16.49,11.64,18.501,10.868z M9.466,34.807c-2.588,0.006-4.337,0.873-4.333,2.551s1.433,2.363,4.261,2.356
		c2.444-0.006,4.109-0.746,4.105-2.472C13.494,35.612,12.15,34.801,9.466,34.807z M8.757,22.154
		c1.965-0.005,3.643-1.111,3.638-3.364c-0.005-1.992-1.551-3.495-3.654-3.49c-2.002,0.005-3.535,1.207-3.53,3.555
		C5.217,21.06,6.745,22.159,8.757,22.154z"/>
</g>
</svg>
